<svg width="25" height="22" viewBox="0 0 25 22" fill="none" xmlns="http://www.w3.org/2000/svg">
<g clip-path="url(#clip0_1_2512)">
<path d="M15.3987 2.31984C15.2491 2.02067 15.439 1.62901 15.6578 1.31984C15.8477 1.05171 15.7864 0.660925 15.4743 0.558375C14.9994 0.402357 14.3333 0.266594 13.7748 0.463988C12.5874 0.88369 12.7109 3.11062 11.4551 3.01578C10.7656 2.96372 10.6386 2.08786 9.94714 2.08786C9.59918 2.08786 4.37958 6.84348 3.45166 8.23537C2.81798 9.1859 5.30751 15.0788 6.00349 15.0788C8.78724 15.0788 10.1656 11.3804 13.098 11.5514C16.2955 11.7377 16.9122 17.7973 19.9224 16.7027C22.4741 15.7748 25.451 11.7787 24.214 8.58334C23.4621 6.64094 21.9655 4.29237 20.7483 2.54327C20.2077 1.76654 18.9709 2.21627 18.8407 3.15358C18.7414 3.86792 18.5466 4.44275 18.1825 4.52366C17.5666 4.66054 15.9786 3.47975 15.3987 2.31984Z" fill="#ABBAA7"/>
<path d="M13.5959 2.31984C13.4464 2.02067 13.6362 1.62901 13.8552 1.31984C14.045 1.05171 13.9836 0.660925 13.6715 0.558375C13.1967 0.402357 12.5306 0.266594 11.9721 0.463988C10.7847 0.88369 10.9081 3.11062 9.65229 3.01579C8.96282 2.96372 8.83584 2.08786 8.14441 2.08786C7.79645 2.08786 2.57684 6.84348 1.64893 8.23537C1.01525 9.1859 3.50476 15.0788 4.20076 15.0788C6.98449 15.0788 9.03973 11.3804 11.9721 11.5514C15.1697 11.7377 16.6137 17.5782 18.1196 16.7027C20.467 15.338 23.6482 11.7787 22.4112 8.58334C21.6594 6.64094 20.1628 4.29237 18.9456 2.54327C18.405 1.76654 17.1682 2.21627 17.0379 3.15358C16.9387 3.86792 16.7438 4.44275 16.3798 4.52366C15.7638 4.66054 14.176 3.47975 13.5959 2.31984Z" stroke="black" stroke-width="0.382609"/>
<path d="M20.3279 18.7919C20.2136 18.7919 20.0836 18.7827 19.9533 18.769C19.5974 18.7316 19.2984 19.0564 19.415 19.3946C19.6739 20.1454 20.1024 21.1804 20.4715 21.0882C21.0455 20.9447 21.9067 18.8636 21.4761 18.6483C21.0455 18.4331 20.7798 18.7919 20.3279 18.7919Z" fill="#ABBAA7"/>
<path d="M18.9202 18.7919C18.8059 18.7919 18.6759 18.7827 18.5455 18.769C18.1898 18.7316 17.8907 19.0564 18.0073 19.3946C18.2662 20.1454 18.6947 21.1804 19.0638 21.0882C19.6378 20.9447 20.499 18.8636 20.0684 18.6483C19.6378 18.4331 19.3721 18.7919 18.9202 18.7919Z" stroke="black" stroke-width="0.382609"/>
</g>
<defs>
<clipPath id="clip0_1_2512">
<rect width="23.913" height="22" fill="white" transform="translate(0.590088)"/>
</clipPath>
</defs>
</svg>
