<svg width="16" height="17" viewBox="0 0 16 17" fill="none" xmlns="http://www.w3.org/2000/svg">
<g clip-path="url(#clip0_1_1706)">
<path d="M15.3445 8.43203C15.3445 4.19476 11.9095 0.759766 7.67227 0.759766C3.43499 0.759766 0 4.19476 0 8.43203C0 12.6693 3.43499 16.1043 7.67227 16.1043C11.9095 16.1043 15.3445 12.6693 15.3445 8.43203Z" fill="#D0D8BC"/>
<mask id="mask0_1_1706" style="mask-type:luminance" maskUnits="userSpaceOnUse" x="3" y="4" width="9" height="9">
<path d="M11.5085 4.5957H3.83618V12.268H11.5085V4.5957Z" fill="white"/>
</mask>
<g mask="url(#mask0_1_1706)">
<path fill-rule="evenodd" clip-rule="evenodd" d="M11.4078 5.2337C11.5245 5.3301 11.5409 5.50281 11.4445 5.61946L6.67121 11.3956L6.67054 11.3964C6.59237 11.4903 6.49427 11.5656 6.38335 11.6167C6.27244 11.6679 6.15151 11.6937 6.02936 11.6923C5.90521 11.6908 5.78279 11.6611 5.67174 11.6056C5.56093 11.5502 5.46408 11.4705 5.38843 11.3723C5.38826 11.3721 5.38859 11.3726 5.38843 11.3723L3.89269 9.44928C3.79979 9.32983 3.8213 9.15767 3.94076 9.06476C4.06021 8.97186 4.23237 8.99338 4.32527 9.11282L5.82222 11.0375C5.84746 11.0703 5.87981 11.0969 5.91682 11.1154C5.95379 11.1339 5.99445 11.1438 6.03577 11.1443C6.07646 11.1448 6.11675 11.1362 6.1537 11.1192C6.19053 11.1021 6.22314 11.0771 6.24915 11.046C6.24905 11.0462 6.24925 11.0459 6.24915 11.046L11.0221 5.27036C11.1184 5.15371 11.2911 5.1373 11.4078 5.2337Z" fill="#133F26"/>
</g>
</g>
<defs>
<clipPath id="clip0_1_1706">
<rect width="16" height="16" fill="white" transform="translate(0 0.759766)"/>
</clipPath>
</defs>
</svg>
