<svg width="14" height="15" viewBox="0 0 14 15" fill="none" xmlns="http://www.w3.org/2000/svg">
<g clip-path="url(#clip0_1_2356)">
<path d="M11.2339 5.89996C11.2391 5.14398 11.0419 4.40037 10.6626 3.74635C10.2835 3.09233 9.73611 2.55173 9.07743 2.18067C8.41876 1.80961 7.67276 1.62163 6.9169 1.63623C6.16104 1.65083 5.42287 1.86748 4.77901 2.26371C4.13515 2.65992 3.60908 3.22127 3.25543 3.88944C2.90177 4.55762 2.7334 5.30829 2.76782 6.0635C2.80223 6.81872 3.03817 7.55097 3.45113 8.18422C3.8641 8.81746 4.43904 9.3286 5.11626 9.66468V11.0764C5.11626 11.2012 5.16583 11.3209 5.25409 11.4092C5.34234 11.4974 5.46203 11.547 5.58685 11.547H8.41036C8.53516 11.547 8.65486 11.4974 8.74311 11.4092C8.83136 11.3209 8.88095 11.2012 8.88095 11.0764V9.66468C9.58445 9.31806 10.1773 8.7821 10.593 8.11705C11.0087 7.452 11.2306 6.68421 11.2339 5.89996Z" stroke="#133F26" stroke-width="1.17646" stroke-linecap="round" stroke-linejoin="round"/>
<path d="M5.1167 13.9H8.88139" stroke="#133F26" stroke-width="1.17646" stroke-linecap="round" stroke-linejoin="round"/>
</g>
<defs>
<clipPath id="clip0_1_2356">
<rect width="9.88235" height="14" fill="white" transform="translate(2.05884 0.849731)"/>
</clipPath>
</defs>
</svg>
