<svg width="285" height="203" viewBox="0 0 285 203" fill="none" xmlns="http://www.w3.org/2000/svg">
<g clip-path="url(#clip0_1_1850)">
<path d="M277.052 0.511963H7.94777C3.55834 0.511963 0 4.0703 0 8.45973V194.589C0 198.979 3.55834 202.537 7.94777 202.537H277.052C281.442 202.537 285 198.979 285 194.589V8.45973C285 4.0703 281.442 0.511963 277.052 0.511963Z" fill="#FDFCF4"/>
<path d="M16.0488 16.6184C16.0488 15.7555 16.6047 15.3606 17.2409 15.3606C17.9211 15.3606 18.338 15.7774 18.338 16.3917C18.338 17.1085 17.9431 17.4961 17.2556 18.1617L15.376 19.9974V20.4362H18.9231V19.9827H16.0342V19.9681L17.7236 18.3591C18.5501 17.5693 18.8718 17.1378 18.8718 16.3698C18.8718 15.6531 18.3891 14.9363 17.2263 14.9363C16.2975 14.9363 15.5223 15.5507 15.5295 16.6184H16.0488ZM21.5892 15.3606C22.2401 15.3606 22.8179 15.8359 22.8179 16.7062C22.8179 17.5327 22.2767 17.9861 21.5672 17.9861C20.8724 17.9861 20.3386 17.5254 20.3386 16.677C20.3386 15.7481 20.9821 15.3606 21.5892 15.3606ZM19.9363 19.3099C20.0534 20.1218 20.6604 20.5532 21.4941 20.5532C22.8106 20.5532 23.4029 19.6683 23.4029 17.3937C23.4029 15.6604 22.7228 14.9437 21.5965 14.9437C20.5433 14.9437 19.8193 15.6751 19.8193 16.7062C19.8193 17.9131 20.6969 18.425 21.4794 18.425C22.1158 18.425 22.6424 18.1251 22.8617 17.5912H22.8837C22.8764 19.3099 22.5181 20.1437 21.4794 20.1437C20.931 20.1437 20.5141 19.7853 20.4336 19.3099H19.9363ZM26.3121 20.4435C27.5993 20.4435 28.1698 19.9242 28.1698 18.7614V14.8413H27.6432V18.6882C27.6432 19.6683 27.3799 20.0047 26.2098 20.0047H26.0196V20.4435H26.3121ZM30.093 16.6038H29.5884V19.2222C29.5884 20.0998 29.998 20.5313 30.8171 20.5313C31.4534 20.5313 31.863 20.1509 32.0458 19.7268H32.0604V20.4362H32.5359V16.6038H32.0312V18.6736C32.0312 19.5367 31.6655 20.1071 30.9268 20.1071C30.6124 20.1071 30.3929 20.012 30.2612 19.8365C30.1223 19.6536 30.093 19.3611 30.093 19.0539V16.6038ZM36.4101 20.4362H36.9147V17.8325C36.9147 16.9549 36.5417 16.5088 35.7152 16.5088C35.079 16.5088 34.6474 16.8525 34.4427 17.2841H34.4281V16.6038H33.9526V20.4362H34.4646V18.1763C34.4646 17.518 34.8157 16.9403 35.5983 16.9403C35.8981 16.9403 36.1102 17.0281 36.2419 17.2109C36.3808 17.401 36.4101 17.6936 36.4101 18.0154V20.4362ZM40.6253 16.6184C40.6253 15.7555 41.1812 15.3606 41.8174 15.3606C42.4976 15.3606 42.9145 15.7774 42.9145 16.3917C42.9145 17.1085 42.5195 17.4961 41.832 18.1617L39.9524 19.9974V20.4362H43.4996V19.9827H40.6107V19.9681L42.3001 18.3591C43.1265 17.5693 43.4484 17.1378 43.4484 16.3698C43.4484 15.6531 42.9657 14.9363 41.8028 14.9363C40.8739 14.9363 40.0987 15.5507 40.106 16.6184H40.6253ZM44.4396 17.7448C44.4396 19.6171 45.1857 20.5532 46.3559 20.5532C47.5187 20.5532 48.2794 19.6171 48.2794 17.7448C48.2794 15.8652 47.5041 14.9363 46.3559 14.9363C45.1929 14.9363 44.4396 15.8579 44.4396 17.7448ZM46.3559 20.1437C45.4928 20.1437 44.9809 19.2733 44.9809 17.7521C44.9809 16.1578 45.5002 15.3606 46.3559 15.3606C47.2188 15.3606 47.7382 16.2016 47.7382 17.7521C47.7382 19.2514 47.1969 20.1437 46.3559 20.1437ZM49.7603 16.6184C49.7603 15.7555 50.3161 15.3606 50.9524 15.3606C51.6325 15.3606 52.0494 15.7774 52.0494 16.3917C52.0494 17.1085 51.6545 17.4961 50.967 18.1617L49.0874 19.9974V20.4362H52.6345V19.9827H49.7456V19.9681L51.435 18.3591C52.2615 17.5693 52.5833 17.1378 52.5833 16.3698C52.5833 15.6531 52.1007 14.9363 50.9377 14.9363C50.0089 14.9363 49.2337 15.5507 49.2409 16.6184H49.7603ZM54.2385 16.6184C54.2385 15.7555 54.7943 15.3606 55.4306 15.3606C56.1107 15.3606 56.5276 15.7774 56.5276 16.3917C56.5276 17.1085 56.1327 17.4961 55.4452 18.1617L53.5656 19.9974V20.4362H57.1127V19.9827H54.2238V19.9681L55.9133 18.3591C56.7397 17.5693 57.0615 17.1378 57.0615 16.3698C57.0615 15.6531 56.5788 14.9363 55.4159 14.9363C54.4871 14.9363 53.7119 15.5507 53.7192 16.6184H54.2385Z" fill="#404040"/>
<path d="M17.6649 33.2774C17.1383 32.9556 16.7531 32.6045 16.5093 32.2242C16.2655 31.8341 16.1437 31.3807 16.1437 30.8639C16.1437 30.2886 16.2851 29.7814 16.5679 29.3426C16.8506 28.8941 17.2505 28.5528 17.7673 28.3187C18.2842 28.0749 18.8839 27.9531 19.5665 27.9531C20.5514 27.9531 21.3412 28.1969 21.9361 28.6844C22.531 29.172 22.8284 29.8302 22.8284 30.6591C22.8284 31.722 22.3066 32.546 21.2633 33.1311C21.9751 33.4919 22.5017 33.9113 22.843 34.3891C23.1843 34.8571 23.355 35.3984 23.355 36.0127C23.355 36.9197 23.0039 37.6363 22.3018 38.1629C21.6094 38.6798 20.6537 38.9382 19.4348 38.9382C18.2354 38.9382 17.2944 38.6847 16.6118 38.1776C15.9292 37.6607 15.5879 36.9488 15.5879 36.042C15.5879 35.4276 15.7536 34.8962 16.0852 34.4476C16.4265 33.9893 16.9531 33.5992 17.6649 33.2774ZM20.6343 32.8532C21.0049 32.5705 21.2925 32.234 21.4973 31.844C21.7021 31.4539 21.8045 31.0491 21.8045 30.6299C21.8045 30.0155 21.59 29.5231 21.1609 29.1526C20.7318 28.782 20.1564 28.5967 19.4348 28.5967C18.7717 28.5967 18.25 28.7575 17.8697 29.0794C17.4992 29.3914 17.3139 29.8302 17.3139 30.3958C17.3139 30.7762 17.4163 31.1029 17.621 31.3759C17.8258 31.6391 18.1622 31.8879 18.6303 32.1218C19.1082 32.3559 19.7761 32.5997 20.6343 32.8532ZM18.2793 33.5993C17.7332 33.882 17.3285 34.2135 17.0652 34.5939C16.8117 34.9645 16.6849 35.4179 16.6849 35.9542C16.6849 36.7051 16.9189 37.2804 17.387 37.6802C17.8648 38.0801 18.5572 38.28 19.4641 38.28C20.293 38.28 20.9366 38.1093 21.3949 37.768C21.8532 37.4267 22.0824 36.9488 22.0824 36.3346C22.0824 35.9445 21.9702 35.6129 21.746 35.3398C21.5314 35.0571 21.1512 34.784 20.605 34.5208C20.0686 34.2477 19.2935 33.9406 18.2793 33.5993ZM24.3106 28.1578H31.8875L31.1122 29.5036C29.3667 32.234 27.9723 35.3204 26.9288 38.7627H25.1882C26.4559 35.2229 28.2014 32.1365 30.4248 29.5036H25.4222L24.3106 30.7323V28.1578ZM32.8873 38.8504C32.6435 38.8504 32.4436 38.7724 32.2876 38.6164C32.1316 38.4603 32.0535 38.2604 32.0535 38.0167C32.0535 37.7729 32.1316 37.573 32.2876 37.417C32.4436 37.2512 32.6435 37.1683 32.8873 37.1683C33.1311 37.1683 33.331 37.2512 33.487 37.417C33.6431 37.573 33.721 37.7729 33.721 38.0167C33.721 38.2604 33.6431 38.4603 33.487 38.6164C33.331 38.7724 33.1311 38.8504 32.8873 38.8504ZM36.9677 37.3731V30.2496L35.2416 30.4982L38.3572 27.9385V37.6071L39.3519 38.7627H36.3241L36.9677 37.3731Z" fill="#133F26"/>
<path d="M45.9445 36.3269L45.9307 35.3157H46.0968L48.424 32.9471H49.4351L46.9557 35.4542H46.8864L45.9445 36.3269ZM45.1826 38.2662V31.1741H45.9999V38.2662H45.1826ZM48.5624 38.2662L46.4847 35.6344L47.0665 35.0665L49.6013 38.2662H48.5624ZM52.415 40.3716C52.0201 40.3716 51.6808 40.3208 51.3968 40.2192C51.1129 40.12 50.8763 39.9884 50.6869 39.8245C50.4999 39.6629 50.351 39.4897 50.2402 39.305L50.8913 38.8479C50.9651 38.9448 51.0586 39.0557 51.1718 39.1804C51.2849 39.3073 51.4395 39.417 51.6357 39.5094C51.8343 39.604 52.094 39.6513 52.415 39.6513C52.8444 39.6513 53.1987 39.5474 53.478 39.3397C53.7573 39.1319 53.8971 38.8064 53.8971 38.3631V37.2827H53.8277C53.7678 37.3796 53.6824 37.4997 53.5715 37.6429C53.463 37.7837 53.306 37.9095 53.1006 38.0203C52.8974 38.1288 52.6227 38.1831 52.2764 38.1831C51.847 38.1831 51.4615 38.0815 51.1198 37.8783C50.7804 37.6751 50.5115 37.3796 50.3129 36.9918C50.1167 36.604 50.0186 36.133 50.0186 35.579C50.0186 35.0341 50.1144 34.5597 50.306 34.1556C50.4976 33.7494 50.7642 33.4354 51.1059 33.2138C51.4476 32.9898 51.8424 32.8779 52.2902 32.8779C52.6365 32.8779 52.9113 32.9356 53.1145 33.051C53.3199 33.1641 53.4769 33.2934 53.5853 33.4389C53.6962 33.582 53.7816 33.6997 53.8417 33.7921H53.9248V32.9471H54.7143V38.4185C54.7143 38.8756 54.6105 39.2473 54.4026 39.5336C54.1972 39.8222 53.9201 40.0334 53.5715 40.1673C53.2253 40.3035 52.8397 40.3716 52.415 40.3716ZM52.3873 37.4489C52.7151 37.4489 52.9921 37.3739 53.2183 37.2238C53.4445 37.0738 53.6165 36.8579 53.7343 36.5763C53.8521 36.2946 53.9109 35.9575 53.9109 35.5651C53.9109 35.1818 53.8532 34.8436 53.7378 34.5505C53.6223 34.2572 53.4515 34.0275 53.2253 33.8613C52.999 33.6951 52.7196 33.612 52.3873 33.612C52.0409 33.612 51.7523 33.6997 51.5215 33.8752C51.2929 34.0507 51.1209 34.2861 51.0056 34.5817C50.8924 34.8771 50.8358 35.205 50.8358 35.5651C50.8358 35.9345 50.8935 36.2612 51.009 36.5451C51.1267 36.8267 51.2999 37.0483 51.5284 37.21C51.7593 37.3693 52.0456 37.4489 52.3873 37.4489Z" fill="#133F26"/>
<path d="M17.3726 54.1098L18.5501 49.9557C18.711 49.3998 18.7695 49.0926 18.7695 49.0926H18.7842C18.7842 49.0926 18.8353 49.4071 18.9962 49.9703L20.1811 54.1098H20.7588L22.3678 48.5149H21.8559L20.6491 52.786C20.5394 53.1663 20.4882 53.4735 20.4882 53.4735H20.4736C20.4736 53.4735 20.415 53.1664 20.3054 52.7788L19.0987 48.5149H18.4769L17.2702 52.786C17.1532 53.1883 17.1166 53.4589 17.1166 53.4589H17.102C17.102 53.4589 17.0654 53.1883 16.9483 52.786L15.7344 48.5149H15.2078L16.824 54.1098H17.3726ZM23.9976 53.7588C23.5368 53.7588 23.2369 53.5247 23.2369 53.0713C23.2369 52.8299 23.3247 52.6397 23.5003 52.5154C23.7416 52.3399 24.2243 52.2814 25.1751 52.2229V52.3837C25.1751 53.3272 24.5461 53.7588 23.9976 53.7588ZM23.3979 51.2941C23.4271 50.8992 23.705 50.57 24.2901 50.57C24.9703 50.57 25.1824 50.9868 25.1824 51.5866V51.8279C24.2536 51.8792 23.6246 51.9449 23.2443 52.157C22.9078 52.3399 22.7177 52.6544 22.7177 53.0933C22.7177 53.7734 23.1784 54.1683 23.8952 54.1683C24.4803 54.1683 24.9483 53.8904 25.1824 53.3931H25.197C25.2263 53.9051 25.4238 54.1464 25.9722 54.1464H26.0381V53.7441C25.7675 53.7368 25.6651 53.6125 25.6651 53.2614V51.5939C25.6651 50.7675 25.3652 50.1824 24.3047 50.1824C23.4417 50.1824 22.9224 50.6943 22.9152 51.2941H23.3979ZM27.0529 49.3267H27.6014V48.7489H27.0529V49.3267ZM27.0675 54.1098H27.5794V50.2774H27.0675V54.1098ZM31.5336 51.199C31.4678 50.5554 30.9632 50.1824 30.166 50.1824C29.3614 50.1824 28.8129 50.6358 28.8129 51.3087C28.8129 51.9377 29.1786 52.2448 29.8222 52.3326L30.4512 52.4204C31.007 52.5008 31.1167 52.7202 31.1167 53.064C31.1167 53.4954 30.7511 53.8027 30.1586 53.8027C29.5077 53.8027 29.2225 53.4882 29.1421 53.0347H28.6447C28.7472 53.8904 29.376 54.2049 30.1513 54.2049C31.0217 54.2049 31.614 53.7441 31.614 53.0201C31.614 52.435 31.3142 52.062 30.5829 51.9596L29.8954 51.8645C29.5077 51.8133 29.2956 51.6378 29.2956 51.2648C29.2956 50.8772 29.6248 50.5773 30.1513 50.5773C30.6707 50.5773 30.985 50.826 31.0436 51.199H31.5336ZM32.9222 49.1292V49.4802C32.9222 50.1824 32.8198 50.2921 32.3298 50.2921H32.1616V50.6724H32.893V53.2102C32.893 53.7807 33.1489 54.1757 33.8876 54.1757C34.2314 54.1757 34.4507 54.1172 34.4507 54.1172V53.693C34.4507 53.693 34.2314 53.7368 34.0119 53.7368C33.5731 53.7368 33.3976 53.5613 33.3976 53.1518V50.6724H34.3776V50.2774H33.3976V49.1292H32.9222ZM35.5219 51.1405H36.224V50.4384H35.5219V51.1405ZM36.224 54.1098V53.4077H35.5219V54.1098H36.224ZM39.3067 50.0653C39.3067 50.7309 39.7601 51.1698 40.2574 51.316V51.3306C39.7894 51.4257 39.1457 51.8499 39.1457 52.6982C39.1457 53.5759 39.8332 54.2268 40.9522 54.2268C42.0639 54.2268 42.7586 53.5686 42.7586 52.6982C42.7586 51.8645 42.1517 51.4257 41.647 51.3306V51.316C42.1443 51.177 42.5978 50.7382 42.5978 50.0653C42.5978 49.2463 41.9761 48.6099 40.9522 48.6099C39.9283 48.6099 39.3067 49.2463 39.3067 50.0653ZM40.9522 49.0195C41.5227 49.0195 42.0785 49.3339 42.0785 50.0727C42.0785 50.804 41.5153 51.1259 40.9522 51.1259C40.3671 51.1259 39.8186 50.804 39.8186 50.0727C39.8186 49.3339 40.3525 49.0195 40.9522 49.0195ZM40.9522 53.8246C40.272 53.8246 39.665 53.4735 39.665 52.6982C39.665 51.9231 40.3013 51.5354 40.9522 51.5354C41.6177 51.5354 42.2467 51.9231 42.2467 52.6982C42.2467 53.4662 41.647 53.8246 40.9522 53.8246ZM44.2179 50.2921C44.2179 49.4291 44.7737 49.0341 45.41 49.0341C46.0901 49.0341 46.507 49.451 46.507 50.0653C46.507 50.7821 46.1121 51.1698 45.4246 51.8353L43.545 53.671V54.1098H47.0921V53.6564H44.2032V53.6417L45.8927 52.0327C46.7191 51.2428 47.041 50.8114 47.041 50.0435C47.041 49.3267 46.5583 48.6099 45.3953 48.6099C44.4665 48.6099 43.6913 49.2243 43.6986 50.2921H44.2179ZM48.0817 54.1098H48.7765V53.415H48.0817V54.1098ZM50.321 54.1098H50.833V48.6612H50.4015C50.3868 49.0196 50.3503 49.2243 50.1966 49.3706C50.0431 49.5095 49.8091 49.5608 49.4361 49.5608H49.2166V49.9483H50.321V54.1098ZM57.346 51.3452C57.2508 50.4969 56.5707 50.175 55.8759 50.175C54.8008 50.175 54.1792 51.0527 54.1792 52.2229C54.1792 53.4224 54.7423 54.2049 55.8539 54.2049C56.6439 54.2049 57.2362 53.7734 57.3533 52.9323H56.8632C56.7974 53.32 56.578 53.7953 55.8613 53.7953C55.0421 53.7953 54.7057 53.1737 54.7057 52.1863C54.7057 51.1844 55.1445 50.5847 55.8832 50.5847C56.4829 50.5847 56.7974 50.9577 56.8413 51.3452H57.346ZM58.3792 54.1098H58.8911V51.8425C58.8911 51.1917 59.2349 50.6139 60.0248 50.6139C60.3247 50.6139 60.5294 50.7016 60.661 50.8845C60.8 51.0746 60.8292 51.3672 60.8292 51.6817V54.1098H61.3339V51.8499C61.3339 51.1917 61.6777 50.6139 62.4675 50.6139C62.7674 50.6139 62.9795 50.6943 63.1111 50.8772C63.2501 51.0746 63.2793 51.3672 63.2793 51.689V54.1098H63.784V51.5061C63.784 50.6285 63.4036 50.1824 62.5845 50.1824C61.9409 50.1824 61.4801 50.5554 61.29 51.0088H61.2754C61.1437 50.431 60.7268 50.1824 60.1345 50.1824C59.5055 50.1824 59.0667 50.5261 58.8692 50.9577H58.8546V50.2774H58.3792V54.1098Z" fill="#133F26"/>
<path d="M187.011 20.4362H187.53V17.9568L189.519 14.8413H188.956L187.281 17.5108H187.266L185.62 14.8413H185.021L187.011 17.9861V20.4362ZM191.238 20.5313C192.305 20.5313 192.913 19.6975 192.913 18.52C192.913 17.3645 192.394 16.5088 191.238 16.5088C190.177 16.5088 189.556 17.3645 189.556 18.52C189.556 19.6902 190.09 20.5313 191.238 20.5313ZM191.238 16.9037C192.035 16.9037 192.386 17.5327 192.386 18.52C192.386 19.5074 192.02 20.129 191.246 20.129C190.44 20.129 190.075 19.5074 190.075 18.52C190.075 17.5327 190.485 16.9037 191.238 16.9037ZM194.503 16.6038H193.999V19.2222C193.999 20.0998 194.408 20.5313 195.227 20.5313C195.863 20.5313 196.273 20.1509 196.456 19.7268H196.47V20.4362H196.946V16.6038H196.441V18.6736C196.441 19.5367 196.076 20.1071 195.337 20.1071C195.022 20.1071 194.803 20.012 194.672 19.8365C194.533 19.6536 194.503 19.3611 194.503 19.0539V16.6038ZM198.363 20.4362H198.874V18.3372C198.874 17.4303 199.423 17.0354 200.023 17.0354H200.126V16.5308H200.059C199.482 16.5308 199.013 16.9549 198.852 17.401H198.839V16.6038H198.363V20.4362ZM203.062 20.4362H203.574V18.3372C203.574 17.4303 204.122 17.0354 204.722 17.0354H204.825V16.5308H204.759C204.181 16.5308 203.713 16.9549 203.552 17.401H203.538V16.6038H203.062V20.4362ZM208.104 18.2494H205.917C205.982 17.4595 206.363 16.9037 207.08 16.9037C207.891 16.9037 208.097 17.6132 208.104 18.2128V18.2494ZM208.557 19.4782H208.074C208.008 19.6902 207.782 20.129 207.109 20.129C206.304 20.129 205.939 19.5659 205.909 18.6371H208.615V18.3226C208.615 17.4156 208.213 16.5088 207.08 16.5088C205.989 16.5088 205.398 17.3864 205.398 18.5493C205.398 19.7488 205.932 20.5313 207.102 20.5313C207.855 20.5313 208.418 20.0633 208.557 19.4782ZM212.585 17.6716C212.491 16.8233 211.811 16.5015 211.115 16.5015C210.04 16.5015 209.418 17.3791 209.418 18.5493C209.418 19.7488 209.981 20.5313 211.094 20.5313C211.883 20.5313 212.476 20.0998 212.593 19.2587H212.102C212.037 19.6464 211.817 20.1218 211.1 20.1218C210.281 20.1218 209.945 19.5001 209.945 18.5127C209.945 17.5108 210.384 16.911 211.122 16.911C211.722 16.911 212.037 17.2841 212.081 17.6716H212.585ZM216.075 18.2494H213.888C213.953 17.4595 214.334 16.9037 215.051 16.9037C215.862 16.9037 216.067 17.6132 216.075 18.2128V18.2494ZM216.527 19.4782H216.045C215.979 19.6902 215.753 20.129 215.08 20.129C214.275 20.129 213.91 19.5659 213.88 18.6371H216.586V18.3226C216.586 17.4156 216.184 16.5088 215.051 16.5088C213.96 16.5088 213.369 17.3864 213.369 18.5493C213.369 19.7488 213.902 20.5313 215.073 20.5313C215.825 20.5313 216.388 20.0633 216.527 19.4782ZM220.133 20.4362H220.638V17.8325C220.638 16.9549 220.264 16.5088 219.438 16.5088C218.801 16.5088 218.37 16.8525 218.165 17.2841H218.151V16.6038H217.675V20.4362H218.188V18.1763C218.188 17.518 218.538 16.9403 219.321 16.9403C219.621 16.9403 219.833 17.0281 219.964 17.2109C220.103 17.401 220.133 17.6936 220.133 18.0154V20.4362ZM222.251 15.4556V15.8066C222.251 16.5088 222.149 16.6184 221.659 16.6184H221.491V16.9988H222.222V19.5367C222.222 20.1071 222.479 20.5021 223.216 20.5021C223.561 20.5021 223.781 20.4435 223.781 20.4435V20.0194C223.781 20.0194 223.561 20.0633 223.342 20.0633C222.903 20.0633 222.727 19.8877 222.727 19.4782V16.9988H223.707V16.6038H222.727V15.4556H222.251ZM226.618 20.4362H227.129V18.169C227.129 17.518 227.474 16.9403 228.263 16.9403C228.563 16.9403 228.768 17.0281 228.9 17.2109C229.039 17.401 229.067 17.6936 229.067 18.0081V20.4362H229.572V18.1763C229.572 17.518 229.915 16.9403 230.706 16.9403C231.006 16.9403 231.217 17.0207 231.349 17.2035C231.488 17.401 231.517 17.6936 231.517 18.0154V20.4362H232.023V17.8325C232.023 16.9549 231.642 16.5088 230.823 16.5088C230.18 16.5088 229.719 16.8818 229.528 17.3352H229.513C229.382 16.7575 228.965 16.5088 228.372 16.5088C227.744 16.5088 227.305 16.8525 227.107 17.2841H227.093V16.6038H226.618V20.4362ZM234.777 20.5313C235.845 20.5313 236.452 19.6975 236.452 18.52C236.452 17.3645 235.933 16.5088 234.777 16.5088C233.717 16.5088 233.095 17.3645 233.095 18.52C233.095 19.6902 233.629 20.5313 234.777 20.5313ZM234.777 16.9037C235.575 16.9037 235.925 17.5327 235.925 18.52C235.925 19.5074 235.56 20.129 234.784 20.129C233.98 20.129 233.614 19.5074 233.614 18.52C233.614 17.5327 234.024 16.9037 234.777 16.9037ZM237.552 20.4362H238.064V18.169C238.064 17.518 238.408 16.9403 239.197 16.9403C239.497 16.9403 239.703 17.0281 239.834 17.2109C239.973 17.401 240.003 17.6936 240.003 18.0081V20.4362H240.507V18.1763C240.507 17.518 240.851 16.9403 241.64 16.9403C241.94 16.9403 242.153 17.0207 242.285 17.2035C242.423 17.401 242.452 17.6936 242.452 18.0154V20.4362H242.957V17.8325C242.957 16.9549 242.577 16.5088 241.757 16.5088C241.114 16.5088 240.653 16.8818 240.463 17.3352H240.449C240.316 16.7575 239.9 16.5088 239.308 16.5088C238.679 16.5088 238.24 16.8525 238.042 17.2841H238.028V16.6038H237.552V20.4362ZM246.736 18.2494H244.549C244.615 17.4595 244.996 16.9037 245.712 16.9037C246.524 16.9037 246.728 17.6132 246.736 18.2128V18.2494ZM247.189 19.4782H246.707C246.641 19.6902 246.414 20.129 245.741 20.129C244.937 20.129 244.571 19.5659 244.542 18.6371H247.248V18.3226C247.248 17.4156 246.846 16.5088 245.712 16.5088C244.622 16.5088 244.029 17.3864 244.029 18.5493C244.029 19.7488 244.564 20.5313 245.733 20.5313C246.487 20.5313 247.05 20.0633 247.189 19.4782ZM250.794 20.4362H251.299V17.8325C251.299 16.9549 250.926 16.5088 250.1 16.5088C249.463 16.5088 249.032 16.8525 248.827 17.2841H248.813V16.6038H248.337V20.4362H248.849V18.1763C248.849 17.518 249.2 16.9403 249.983 16.9403C250.283 16.9403 250.495 17.0281 250.626 17.2109C250.765 17.401 250.794 17.6936 250.794 18.0154V20.4362ZM252.913 15.4556V15.8066C252.913 16.5088 252.811 16.6184 252.321 16.6184H252.152V16.9988H252.884V19.5367C252.884 20.1071 253.139 20.5021 253.878 20.5021C254.222 20.5021 254.441 20.4435 254.441 20.4435V20.0194C254.441 20.0194 254.222 20.0633 254.003 20.0633C253.564 20.0633 253.389 19.8877 253.389 19.4782V16.9988H254.369V16.6038H253.389V15.4556H252.913ZM255.834 16.6038H255.329V19.2222C255.329 20.0998 255.738 20.5313 256.557 20.5313C257.194 20.5313 257.603 20.1509 257.786 19.7268H257.801V20.4362H258.276V16.6038H257.772V18.6736C257.772 19.5367 257.407 20.1071 256.668 20.1071C256.353 20.1071 256.133 20.012 256.001 19.8365C255.862 19.6536 255.834 19.3611 255.834 19.0539V16.6038ZM259.693 20.4362H260.205V18.169C260.205 17.518 260.548 16.9403 261.339 16.9403C261.639 16.9403 261.843 17.0281 261.975 17.2109C262.114 17.401 262.143 17.6936 262.143 18.0081V20.4362H262.648V18.1763C262.648 17.518 262.991 16.9403 263.782 16.9403C264.082 16.9403 264.293 17.0207 264.425 17.2035C264.564 17.401 264.593 17.6936 264.593 18.0154V20.4362H265.098V17.8325C265.098 16.9549 264.717 16.5088 263.899 16.5088C263.255 16.5088 262.794 16.8818 262.604 17.3352H262.589C262.458 16.7575 262.041 16.5088 261.448 16.5088C260.82 16.5088 260.381 16.8525 260.183 17.2841H260.168V16.6038H259.693V20.4362Z" fill="#404040"/>
<path d="M199.023 37.5332C198.789 37.9395 198.202 37.9395 197.968 37.5332L195.857 33.8763C195.622 33.47 195.915 32.9622 196.384 32.9622H200.607C201.076 32.9622 201.369 33.47 201.135 33.8763L199.023 37.5332Z" fill="#14763E"/>
<path d="M206.438 33.5261C206.438 31.7221 206.809 30.3423 207.549 29.3866C208.291 28.431 209.369 27.9531 210.783 27.9531C212.226 27.9531 213.318 28.4261 214.059 29.372C214.8 30.3081 215.171 31.6879 215.171 33.5115C215.171 35.2863 214.796 36.6369 214.044 37.5633C213.303 38.48 212.216 38.9382 210.783 38.9382C209.379 38.9382 208.3 38.4751 207.549 37.5487C206.809 36.6223 206.438 35.2814 206.438 33.5261ZM213.635 33.4969C213.635 31.9268 213.39 30.7275 212.903 29.8986C212.415 29.06 211.709 28.6406 210.783 28.6406C209.875 28.6406 209.178 29.06 208.69 29.8986C208.213 30.7275 207.973 31.9317 207.973 33.5115C207.973 36.6612 208.91 38.2362 210.783 38.2362C211.709 38.2362 212.415 37.8314 212.903 37.0221C213.39 36.2127 213.635 35.0376 213.635 33.4969ZM217.681 38.8505C217.437 38.8505 217.237 38.7725 217.082 38.6165C216.925 38.4604 216.847 38.2605 216.847 38.0167C216.847 37.7729 216.925 37.573 217.082 37.417C217.237 37.2513 217.437 37.1684 217.681 37.1684C217.925 37.1684 218.124 37.2513 218.28 37.417C218.437 37.573 218.514 37.7729 218.514 38.0167C218.514 38.2605 218.437 38.4604 218.28 38.6165C218.124 38.7725 217.925 38.8505 217.681 38.8505ZM220.808 33.8772V28.1579H227.055V29.4744H221.496V33.1897C222.218 32.4193 223.154 32.0342 224.304 32.0342C224.997 32.0342 225.606 32.1706 226.133 32.4437C226.669 32.7168 227.078 33.1069 227.361 33.6139C227.654 34.1112 227.8 34.6914 227.8 35.3546C227.8 36.0567 227.634 36.6759 227.303 37.2122C226.971 37.7389 226.503 38.1484 225.899 38.4409C225.304 38.7335 224.607 38.8797 223.807 38.8797C223.105 38.8797 222.471 38.7725 221.906 38.5579C221.35 38.3337 220.911 38.0314 220.589 37.6511C220.277 37.2707 220.121 36.8416 220.121 36.3638C220.121 36.0908 220.175 35.8811 220.282 35.7348C220.399 35.5885 220.564 35.5155 220.78 35.5155C221.179 35.5155 221.383 35.8031 221.393 36.3785C221.423 36.9831 221.623 37.4512 221.993 37.7826C222.373 38.1142 222.895 38.2801 223.558 38.2801C224.397 38.2801 225.065 38.0216 225.562 37.5048C226.06 36.9782 226.308 36.2761 226.308 35.3985C226.308 34.5891 226.089 33.9601 225.65 33.5115C225.221 33.0531 224.622 32.824 223.851 32.824C223.363 32.824 222.905 32.9167 222.476 33.1019C222.057 33.2872 221.705 33.5457 221.423 33.8772H220.808Z" fill="#133F26"/>
<path d="M233.815 36.327L233.802 35.3158H233.968L236.295 32.9472H237.307L234.827 35.4543H234.758L233.815 36.327ZM233.053 38.2663V31.1742H233.871V38.2663H233.053ZM236.434 38.2663L234.355 35.6345L234.937 35.0665L237.472 38.2663H236.434ZM240.286 40.3717C239.891 40.3717 239.552 40.3209 239.268 40.2193C238.984 40.1201 238.748 39.9885 238.558 39.8246C238.371 39.663 238.222 39.4898 238.111 39.3051L238.762 38.848C238.836 38.9449 238.929 39.0558 239.042 39.1805C239.156 39.3074 239.311 39.4171 239.507 39.5095C239.706 39.6041 239.965 39.6514 240.286 39.6514C240.716 39.6514 241.07 39.5475 241.349 39.3398C241.628 39.132 241.768 38.8065 241.768 38.3632V37.2828H241.699C241.639 37.3797 241.554 37.4998 241.443 37.643C241.334 37.7838 241.177 37.9096 240.972 38.0204C240.768 38.1289 240.494 38.1832 240.148 38.1832C239.718 38.1832 239.332 38.0816 238.991 37.8784C238.651 37.6752 238.383 37.3797 238.184 36.9919C237.988 36.6041 237.89 36.1331 237.89 35.5791C237.89 35.0342 237.986 34.5598 238.178 34.1557C238.369 33.7495 238.635 33.4355 238.977 33.2139C239.319 32.9899 239.714 32.878 240.162 32.878C240.507 32.878 240.782 32.9357 240.986 33.0511C241.191 33.1642 241.348 33.2935 241.457 33.439C241.568 33.5821 241.653 33.6998 241.713 33.7922H241.796V32.9472H242.586V38.4186C242.586 38.8757 242.481 39.2474 242.274 39.5337C242.068 39.8223 241.791 40.0335 241.443 40.1674C241.096 40.3036 240.711 40.3717 240.286 40.3717ZM240.258 37.449C240.587 37.449 240.864 37.374 241.089 37.2239C241.315 37.0739 241.487 36.858 241.605 36.5764C241.724 36.2947 241.782 35.9576 241.782 35.5652C241.782 35.1819 241.725 34.8437 241.608 34.5506C241.493 34.2573 241.322 34.0276 241.096 33.8614C240.87 33.6952 240.591 33.6121 240.258 33.6121C239.912 33.6121 239.623 33.6998 239.393 33.8753C239.164 34.0508 238.992 34.2862 238.877 34.5818C238.763 34.8772 238.707 35.2051 238.707 35.5652C238.707 35.9346 238.764 36.2613 238.881 36.5452C238.998 36.8268 239.171 37.0484 239.4 37.2101C239.63 37.3694 239.916 37.449 240.258 37.449ZM249.331 30.8418L247.045 39.3328H246.298L248.583 30.8418H249.331ZM254.248 38.2663L252.627 32.9472H253.486L254.635 37.0196H254.691L255.827 32.9472H256.7L257.822 37.0057H257.876L259.026 32.9472H259.885L258.265 38.2663H257.461L256.297 34.18H256.215L255.051 38.2663H254.248ZM261.727 36.327L261.713 35.3158H261.88L264.207 32.9472H265.218L262.739 35.4543H262.67L261.727 36.327ZM260.966 38.2663V31.1742H261.783V38.2663H260.966ZM264.346 38.2663L262.267 35.6345L262.849 35.0665L265.385 38.2663H264.346Z" fill="#133F26"/>
<mask id="mask0_1_1850" style="mask-type:luminance" maskUnits="userSpaceOnUse" x="6" y="68" width="269" height="121">
<path d="M6.95117 68.0381H274.077V188.195H6.95117V68.0381Z" fill="white"/>
</mask>
<g mask="url(#mask0_1_1850)">
<path d="M14.8953 85.9126C14.8953 85.9126 53.9544 90.6213 78.664 99.4162C102.575 107.927 115.296 120.975 139.201 129.572C163.762 138.403 202.578 143.509 202.578 143.509" stroke="#829473" stroke-width="0.500488" stroke-linejoin="round" stroke-dasharray="2.5 2.5"/>
<path d="M14.8337 188.195V68.0381" stroke="#CCCCCC" stroke-width="0.250244"/>
<path d="M56.6853 188.195V68.0381" stroke="#CCCCCC" stroke-width="0.250244"/>
<path d="M98.5371 188.195V68.0381" stroke="#CCCCCC" stroke-width="0.250244"/>
<path d="M140.389 188.195V68.0381" stroke="#CCCCCC" stroke-width="0.250244"/>
<path d="M182.24 188.195V68.0381" stroke="#CCCCCC" stroke-width="0.250244"/>
<path d="M224.092 188.195V68.0381" stroke="#CCCCCC" stroke-width="0.250244"/>
<path d="M265.944 188.195V68.0381" stroke="#CCCCCC" stroke-width="0.250244"/>
<path opacity="0.5" d="M67.853 125.115L41.8709 116.572L14.8953 111.732V188.195H202.578V149.888L175.832 144.193L147.71 143.624L121.345 136.505L95.4399 127.678L67.853 125.115Z" fill="#E4DCEB"/>
<path d="M14.8953 109.746L41.8709 115.415L67.853 125.419L95.4399 128.421L121.345 138.758L145.975 144.502H175.27L203.075 149.467" stroke="#BA82E6" stroke-width="2.50244"/>
<path d="M141.026 146.027C142.408 146.027 143.529 144.907 143.529 143.525C143.529 142.143 142.408 141.022 141.026 141.022C139.644 141.022 138.524 142.143 138.524 143.525C138.524 144.907 139.644 146.027 141.026 146.027Z" fill="white" stroke="#BA82E6" stroke-width="1.00098"/>
<path d="M182.733 148.013C184.115 148.013 185.236 146.893 185.236 145.511C185.236 144.129 184.115 143.008 182.733 143.008C181.351 143.008 180.231 144.129 180.231 145.511C180.231 146.893 181.351 148.013 182.733 148.013Z" fill="white" stroke="#BA82E6" stroke-width="1.00098"/>
<path d="M98.3259 132.125C99.708 132.125 100.828 131.004 100.828 129.622C100.828 128.24 99.708 127.12 98.3259 127.12C96.9439 127.12 95.8235 128.24 95.8235 129.622C95.8235 131.004 96.9439 132.125 98.3259 132.125Z" fill="white" stroke="#BA82E6" stroke-width="1.00098"/>
<path d="M33.9775 115.243C35.3596 115.243 36.48 114.123 36.48 112.741C36.48 111.359 35.3596 110.238 33.9775 110.238C32.5955 110.238 31.4751 111.359 31.4751 112.741C31.4751 114.123 32.5955 115.243 33.9775 115.243Z" fill="white" stroke="#BA82E6" stroke-width="1.00098"/>
<path d="M56.6184 123.187C58.0005 123.187 59.1208 122.067 59.1208 120.685C59.1208 119.303 58.0005 118.183 56.6184 118.183C55.2363 118.183 54.116 119.303 54.116 120.685C54.116 122.067 55.2363 123.187 56.6184 123.187Z" fill="white" stroke="#BA82E6" stroke-width="1.00098"/>
<path d="M203.007 68.0381V188.156" stroke="#133F26" stroke-width="0.500488"/>
<path d="M197.752 77.4801C197.419 77.2875 197.419 76.806 197.752 76.6133L200.755 74.8796C201.089 74.6869 201.506 74.9277 201.506 75.3129V78.7805C201.506 79.1657 201.089 79.4065 200.755 79.2139L197.752 77.4801Z" fill="#133F26"/>
<path d="M208.262 76.6135C208.596 76.8062 208.596 77.2878 208.262 77.4805L205.26 79.2142C204.926 79.4068 204.509 79.166 204.509 78.7807V75.3133C204.509 74.928 204.926 74.6872 205.26 74.8798L208.262 76.6135Z" fill="#133F26"/>
<g filter="url(#filter0_i_1_1850)">
<path d="M203.007 138.606C204.666 138.606 206.01 137.262 206.01 135.603C206.01 133.945 204.666 132.6 203.007 132.6C201.349 132.6 200.004 133.945 200.004 135.603C200.004 137.262 201.349 138.606 203.007 138.606Z" fill="white"/>
<path d="M203.007 139.107C204.942 139.107 206.511 137.538 206.511 135.603C206.511 133.668 204.942 132.1 203.007 132.1C201.072 132.1 199.504 133.668 199.504 135.603C199.504 137.538 201.072 139.107 203.007 139.107Z" stroke="#133F26" stroke-width="1.00098"/>
</g>
</g>
<path d="M274.077 187.695H6.95117V188.696H274.077V187.695Z" fill="#595959"/>
</g>
<defs>
<filter id="filter0_i_1_1850" x="199.003" y="131.599" width="8.00781" height="8.00781" filterUnits="userSpaceOnUse" color-interpolation-filters="sRGB">
<feFlood flood-opacity="0" result="BackgroundImageFix"/>
<feBlend mode="normal" in="SourceGraphic" in2="BackgroundImageFix" result="shape"/>
<feColorMatrix in="SourceAlpha" type="matrix" values="0 0 0 0 0 0 0 0 0 0 0 0 0 0 0 0 0 0 127 0" result="hardAlpha"/>
<feOffset/>
<feGaussianBlur stdDeviation="1.98606"/>
<feComposite in2="hardAlpha" operator="arithmetic" k2="-1" k3="1"/>
<feColorMatrix type="matrix" values="0 0 0 0 0.729412 0 0 0 0 0.509804 0 0 0 0 0.901961 0 0 0 0.5 0"/>
<feBlend mode="normal" in2="shape" result="effect1_innerShadow_1_1850"/>
</filter>
<clipPath id="clip0_1_1850">
<rect width="285" height="202.578" fill="white" transform="translate(0 0.0407715)"/>
</clipPath>
</defs>
</svg>
