<svg width="100" height="32" viewBox="0 0 100 32" fill="none" xmlns="http://www.w3.org/2000/svg">
<path d="M8.69047 6.91095V16.9852C8.68575 17.4262 8.71251 17.8671 8.7706 18.3042C8.82401 18.6696 8.90492 19.1181 9.01335 19.6499C9.11839 20.0688 9.18021 20.4974 9.19788 20.9289C9.19788 21.4793 9.08216 21.9012 8.85071 22.1945C8.61927 22.4879 8.28142 22.6346 7.83713 22.6346C7.60867 22.6394 7.38185 22.5951 7.17193 22.5049C6.94061 22.3968 6.71746 22.272 6.50433 22.1315C6.20247 21.9699 5.95969 21.8486 5.776 21.7678C5.57729 21.6851 5.36373 21.6438 5.14843 21.6466C4.80757 21.6288 4.47304 21.7435 4.21499 21.9666C4.10076 22.0712 4.01059 22.1993 3.95067 22.342C3.89074 22.4847 3.86248 22.6387 3.86783 22.7934C3.86783 23.2905 4.13445 23.6901 4.66775 23.9924C5.20103 24.2947 5.89253 24.4454 6.74223 24.4446C8.2191 24.4446 9.34434 23.9827 10.118 23.0589C10.8916 22.1351 11.2788 20.7935 11.2796 19.034V6.98733L12.9584 4.80518H6.87575L8.69047 6.91095Z" fill="#133F26"/>
<path d="M27.6109 10.0024H23.0735L25.1553 12.3749V18.7711C24.8518 20.0149 24.3359 20.9847 23.6076 21.6806C23.2661 22.016 22.8615 22.2806 22.4171 22.4592C21.9727 22.6377 21.4974 22.7266 21.0184 22.7208C20.1113 22.7208 19.4129 22.4318 18.9233 21.8539C18.4337 21.2761 18.1909 20.4368 18.195 19.336V10.0024H13.7644L15.6592 12.1616V19.5178C15.6592 21.0454 16.0639 22.2488 16.8731 23.1281C17.6823 24.0074 18.7979 24.4463 20.2197 24.4447C22.6207 24.4447 24.3553 23.2097 25.4235 20.7399V24.1246H29.7497L27.6145 21.7521L27.6109 10.0024Z" fill="#133F26"/>
<path d="M44.9047 15.2314C44.9047 13.3839 44.5219 11.9695 43.7565 10.9884C42.9909 10.0072 41.888 9.51863 40.4476 9.52266C39.2776 9.50385 38.1338 9.8693 37.1921 10.5628C36.2491 11.2554 35.493 12.2415 34.9233 13.5208V10.0052H30.3567L32.6253 12.5365V21.6518L31.4771 24.131H36.9213L35.1636 22.1028V15.3333C35.5188 14.0894 36.0882 13.1079 36.8716 12.3886C37.6547 11.6693 38.5449 11.3092 39.5419 11.3084C41.4098 11.3084 42.3435 12.6419 42.3435 15.309V21.7342L41.2232 24.1334H46.614L44.906 22.161L44.9047 15.2314Z" fill="#133F26"/>
<path d="M67.3346 10.416C66.4546 9.8026 65.4275 9.49589 64.2523 9.49589C63.1643 9.47742 62.0959 9.78894 61.1886 10.3894C60.2826 11.0032 59.5772 11.8696 59.1602 12.8807V10.0026H54.5962L56.865 12.5339V26.9798L55.7177 29.459H61.1619L59.4005 27.4332V21.5426C59.8594 22.4263 60.5512 23.1683 61.401 23.6884C62.253 24.1976 63.2304 24.4596 64.2234 24.4449C65.3275 24.4658 66.4105 24.1392 67.3187 23.5114C68.2089 22.8891 68.8939 22.0142 69.3736 20.8867C69.8536 19.7593 70.0949 18.4399 70.097 16.9286C70.097 15.4358 69.8567 14.1298 69.3761 13.0104C68.8954 11.891 68.2148 11.0262 67.3346 10.416ZM66.3341 21.0771C65.5865 22.0994 64.5811 22.6102 63.3177 22.6094C62.4626 22.6204 61.6261 22.3588 60.93 21.8627C60.218 21.354 59.6818 20.6367 59.3958 19.8102V14.1402C59.6849 13.3131 60.2202 12.594 60.93 12.0793C61.632 11.5728 62.4787 11.3062 63.3444 11.3192C64.6084 11.3192 65.6095 11.8255 66.3475 12.8382C67.0855 13.8509 67.4547 15.2281 67.4547 16.9698C67.4547 18.6864 67.0812 20.0555 66.3341 21.0771Z" fill="#133F26"/>
<path d="M82.7857 22.3291C81.9989 22.7046 81.1351 22.8918 80.2632 22.8759C78.5735 22.8759 77.2573 22.3735 76.3147 21.369C75.3717 20.3644 74.8553 18.912 74.7656 17.0119H85.0144C85.0498 14.5776 84.5561 12.7163 83.5333 11.428C82.5106 10.1397 81.0292 9.49561 79.0895 9.49561C77.7016 9.49561 76.4783 9.81889 75.4198 10.4654C74.356 11.1198 73.4997 12.0623 72.9511 13.1834C72.3652 14.3473 72.0717 15.6844 72.0708 17.195C72.0708 18.6497 72.3509 19.9247 72.911 21.0198C73.4435 22.0822 74.2794 22.963 75.313 23.5511C76.3547 24.1467 77.5777 24.4446 78.9827 24.4446C80.4231 24.4446 81.6862 24.129 82.7723 23.4978C83.8581 22.8665 84.7387 21.9294 85.4137 20.6864L85.1709 20.4997C84.3155 21.3516 83.5203 21.9614 82.7857 22.3291ZM75.9976 12.0948C76.7413 11.1953 77.7364 10.7455 78.9827 10.7455C80.1965 10.7455 81.113 11.1811 81.7319 12.0523C82.351 12.9236 82.6621 14.203 82.6655 15.8905H74.7389C74.8286 14.2571 75.2484 12.9919 75.9976 12.0948Z" fill="#133F26"/>
<path d="M96.4111 10.3095C96.0997 10.067 95.6768 9.9458 95.1427 9.9458C94.0395 9.9458 93.0686 10.3855 92.2293 11.2648C91.3901 12.1441 90.8119 13.339 90.4946 14.8496V10.0003H85.9365L88.2041 12.5316V21.647L87.0571 24.1262H92.506L90.7449 22.1004V16.4523C91.2926 14.2499 92.1629 12.9539 93.3558 12.5644C93.4875 12.5351 93.6216 12.5177 93.7563 12.5122C93.8815 12.511 94.0063 12.5196 94.1302 12.5377C94.237 12.5559 94.3258 12.5741 94.3972 12.591C94.6506 12.6536 94.9098 12.6893 95.1707 12.6977C95.7047 12.6977 96.1229 12.5737 96.4257 12.3256C96.5688 12.1994 96.6834 12.0441 96.7613 11.8699C96.8396 11.6958 96.8793 11.507 96.8781 11.3163C96.8768 11.1256 96.8346 10.9373 96.7542 10.7642C96.6738 10.5912 96.5573 10.4373 96.4123 10.3131L96.4111 10.3095Z" fill="#133F26"/>
<path d="M50.4716 6.7087C50.8234 6.66142 51.1755 6.60323 51.5288 6.55594C52.4175 6.43472 53.539 6.31347 54.0159 5.43092C54.4118 4.70353 54.8729 2.80144 54.7102 2.77477C53.1046 2.50881 51.4574 2.8489 50.0891 3.72885C45.4596 6.72202 46.337 11.3082 49.4895 12.4926L49.5212 12.5338V21.6492L48.3739 24.1283H53.8181L52.0567 22.1026V10.0025H49.0768C48.1823 10.0025 47.5315 9.4958 47.5669 8.66901C47.6212 7.39002 49.3221 6.86631 50.4716 6.7087Z" fill="#133F26"/>
</svg>
