<svg width="132" height="60" viewBox="0 0 132 60" fill="none" xmlns="http://www.w3.org/2000/svg">
<g clip-path="url(#clip0_1_2571)">
<mask id="mask0_1_2571" style="mask-type:luminance" maskUnits="userSpaceOnUse" x="0" y="11" width="132" height="38">
<path d="M132 11H0V49H132V11Z" fill="white"/>
</mask>
<g mask="url(#mask0_1_2571)">
<path d="M6.85455 17.0975V31.3495C6.84822 31.9709 6.88565 32.5921 6.96656 33.2084C7.04123 33.7258 7.15636 34.3579 7.30882 35.1138C7.45824 35.7065 7.54685 36.3127 7.57329 36.9232C7.61495 37.5581 7.44187 38.1885 7.08168 38.714C6.90777 38.9232 6.68655 39.0885 6.43615 39.1962C6.18575 39.3039 5.91329 39.351 5.64109 39.3336C5.31992 39.3382 5.00154 39.2737 4.70765 39.1446C4.38366 38.9927 4.07163 38.8166 3.77422 38.6179C3.34173 38.3918 2.99636 38.2214 2.73188 38.1098C2.45022 37.9926 2.14725 37.9346 1.842 37.9394C1.35796 37.9131 0.882622 38.0753 0.516534 38.3918C0.354483 38.5394 0.22658 38.7203 0.141695 38.9219C0.0568093 39.1236 0.0169649 39.3413 0.0249204 39.5598C0.0249204 40.2631 0.401404 40.8301 1.1606 41.2576C2.073 41.721 3.09008 41.9419 4.11337 41.899C6.21048 41.899 7.80769 41.2453 8.90499 39.9378C10.0023 38.6303 10.5426 36.7404 10.5261 34.268V17.2122L12.9001 14.1294H4.27827L6.85455 17.0975Z" fill="#FAF9EF"/>
<path d="M33.7031 21.4719H27.2655L30.2182 24.8273V33.8772C29.7889 35.6371 29.0566 37.0075 28.0216 37.9886C27.5372 38.4628 26.9635 38.8369 26.3334 39.0895C25.7033 39.342 25.0292 39.4681 24.3501 39.4603C23.0619 39.4603 22.0704 39.0472 21.3755 38.221C20.6806 37.3948 20.3342 36.2071 20.3363 34.658V21.4595H14.0481L16.7364 24.5143V34.9214C16.7364 37.0839 17.3109 38.7869 18.4601 40.0304C19.6092 41.2738 21.194 41.8934 23.2144 41.8893C26.6225 41.8893 29.0836 40.1419 30.5978 36.6471V41.437H36.7336L33.7031 38.0785V21.4719Z" fill="#FAF9EF"/>
<path d="M58.2432 28.8613C58.2432 26.2484 57.7008 24.25 56.6159 22.8662C55.531 21.4823 53.966 20.7914 51.9207 20.7934C50.2608 20.7672 48.6379 21.283 47.3002 22.262C45.8777 23.3529 44.7674 24.7961 44.0799 26.4477V21.472H37.605L40.8222 25.0535V37.9515L39.1949 41.4587H46.9206L44.4315 38.5929V29.0007C44.833 27.4136 45.6726 25.9701 46.8553 24.8336C47.8706 23.8543 49.2285 23.3066 50.6419 23.3061C53.2929 23.3061 54.6184 25.1919 54.6184 28.9635V38.0507L53.0284 41.4587H60.6763L58.2525 38.6703L58.2432 28.8613Z" fill="#FAF9EF"/>
<path d="M90.0639 22.0543C88.7827 21.1812 87.2601 20.7275 85.7079 20.7562C84.1613 20.7285 82.6425 21.1682 81.3518 22.0172C80.0673 22.8874 79.0668 24.1131 78.4738 25.543V21.4719H71.9895L75.2099 25.0534V45.5019L73.5732 48.9998H81.299L78.8098 46.1339V37.7996C79.4627 39.0495 80.4446 40.0991 81.6506 40.8359C82.8619 41.5592 84.252 41.9316 85.6643 41.911C87.2337 41.9424 88.7731 41.4806 90.0639 40.5911C91.3717 39.6538 92.3832 38.3639 92.9793 36.8732C93.6973 35.0941 94.0456 33.1885 94.003 31.2716C94.0442 29.3739 93.6959 27.4878 92.9793 25.7289C92.3786 24.2526 91.3672 22.9778 90.0639 22.0543ZM88.6451 37.1397C88.1701 37.8277 87.5299 38.3866 86.7827 38.7653C86.0355 39.1441 85.205 39.3308 84.3668 39.3085C83.1525 39.323 81.9649 38.953 80.9754 38.252C79.9654 37.5317 79.2045 36.5175 78.7973 35.3489V27.3152C79.2082 26.1434 79.9679 25.1242 80.9754 24.3935C81.9708 23.6787 83.1708 23.3018 84.3979 23.3184C85.2317 23.2946 86.0582 23.4788 86.8022 23.8544C87.5462 24.2299 88.184 24.7849 88.6575 25.4686C89.7071 26.9 90.2309 28.8488 90.2288 31.315C90.2267 33.7812 89.7019 35.7228 88.6544 37.1397H88.6451Z" fill="#FAF9EF"/>
<path d="M112 38.915C110.884 39.4473 109.658 39.7125 108.421 39.6896C106.021 39.6896 104.155 38.9791 102.821 37.558C101.487 36.1369 100.755 34.0818 100.624 31.3925H115.167C115.217 27.9472 114.516 25.3137 113.064 23.492C111.612 21.6702 109.51 20.7593 106.76 20.7593C104.929 20.7224 103.124 21.1991 101.551 22.1349C100.042 23.0605 98.8266 24.3938 98.0478 25.9799C97.1892 27.7477 96.7628 29.6926 96.8032 31.6559C96.7596 33.5244 97.1661 35.3761 97.9886 37.0561C98.7434 38.5594 99.9291 39.8058 101.396 40.6377C102.99 41.5094 104.787 41.9455 106.604 41.9018C108.485 41.9432 110.341 41.481 111.981 40.5633C113.573 39.6089 114.866 38.2312 115.715 36.5852L115.376 36.3187C114.397 37.3584 113.257 38.2349 112 38.915ZM102.354 24.4338C102.866 23.813 103.515 23.3184 104.251 22.9884C104.987 22.6584 105.789 22.5021 106.595 22.5315C108.313 22.5315 109.613 23.1512 110.497 24.3905C111.38 25.6298 111.83 27.435 111.844 29.8062H100.584C100.708 27.4928 101.301 25.701 102.363 24.4307L102.354 24.4338Z" fill="#FAF9EF"/>
<path d="M131.337 21.9057C130.811 21.5393 130.177 21.3593 129.536 21.3945C128.755 21.3964 127.984 21.5631 127.273 21.8835C126.562 22.2039 125.927 22.6708 125.41 23.2534C124.221 24.4927 123.401 26.1833 122.949 28.3252V21.4719H116.471L119.691 25.0535V37.9515L118.067 41.4587H125.793L123.304 38.5928V30.5962C124.088 27.4794 125.325 25.6442 127.015 25.0907C127.203 25.0491 127.393 25.0242 127.585 25.0163C127.762 25.0147 127.939 25.0271 128.114 25.0535C128.266 25.0783 128.391 25.1031 128.493 25.1278C128.849 25.2174 129.213 25.2694 129.579 25.2828C130.216 25.3192 130.846 25.1329 131.359 24.7561C131.568 24.5887 131.735 24.3754 131.846 24.1329C131.958 23.8904 132.012 23.6254 132.003 23.3587C132.017 23.0811 131.964 22.8041 131.848 22.5512C131.733 22.2983 131.557 22.0769 131.337 21.9057Z" fill="#FAF9EF"/>
<path d="M66.1369 16.769C67.2135 16.642 68.3149 16.6079 69.351 16.298C70.0356 16.0905 70.8445 15.6071 71.1743 15.003C71.7344 13.9682 72.0549 12.7939 72.4532 11.6135C72.4716 11.5613 72.4785 11.5057 72.4734 11.4506C72.4682 11.3954 72.4512 11.342 72.4234 11.2941C72.3956 11.2461 72.3578 11.2047 72.3124 11.1727C72.2671 11.1406 72.2153 11.1187 72.1607 11.1085C69.8641 10.7595 67.5202 11.291 65.6017 12.5956C64.9459 13.0348 64.3489 13.5554 63.8251 14.1448C63.2028 14.8636 62.148 17.0633 62.0267 17.3267C60.8163 19.985 61.4449 23.8671 64.7492 24.9948L64.7959 25.0537V37.9517L63.1686 41.4589H70.8943L68.4052 38.593V21.4721H64.1643C61.6253 21.4721 61.2799 19.1701 63.0628 17.9339C63.9792 17.3064 65.0334 16.9069 66.1369 16.769Z" fill="#FAF9EF"/>
</g>
</g>
<defs>
<clipPath id="clip0_1_2571">
<rect width="132" height="38" fill="white" transform="translate(0 11)"/>
</clipPath>
</defs>
</svg>
