<svg width="94" height="103" viewBox="0 0 94 103" fill="none" xmlns="http://www.w3.org/2000/svg">
<mask id="mask0_1_2605" style="mask-type:luminance" maskUnits="userSpaceOnUse" x="0" y="0" width="94" height="103">
<path d="M93.9657 0H0V102.992H93.9657V0Z" fill="white"/>
</mask>
<g mask="url(#mask0_1_2605)">
<path d="M46.997 0C21.0766 0 0 21.0766 0 46.997V102.992H93.9657V46.997C93.9657 21.0766 72.8892 0 46.997 0ZM0.498168 83.2097H9.95396V102.494H0.498168V83.2097ZM86.0044 82.7147H84.0118V46.997C84.0569 42.1055 83.1323 37.2539 81.2916 32.7218C79.4509 28.1897 76.7304 24.0673 73.2874 20.5926C69.8447 17.1178 65.7475 14.3596 61.2323 12.4773C56.7175 10.595 51.8743 9.62589 46.9829 9.62589C42.0914 9.62589 37.2482 10.595 32.7334 12.4773C28.2184 14.3596 24.1211 17.1178 20.6782 20.5926C17.2353 24.0673 14.5149 28.1897 12.6742 32.7218C10.8335 37.2539 9.90896 42.1055 9.95396 46.997V82.7147H7.96442V46.997C7.96442 41.8727 8.97369 36.7986 10.9346 32.0648C12.8956 27.3305 15.7698 23.029 19.3931 19.4056C23.0164 15.7823 27.318 12.9081 32.0522 10.9472C36.7861 8.98623 41.8602 7.97695 46.9844 7.97695C52.1087 7.97695 57.1828 8.98623 61.9166 10.9472C66.6508 12.9081 70.9522 15.7823 74.5757 19.4056C78.1992 23.029 81.0732 27.3305 83.0342 32.0648C84.9953 36.7986 86.0044 41.8727 86.0044 46.997V82.7147ZM83.5167 102.453H10.4521V96.3751H83.5167V102.453ZM22.1982 83.2097V89.2942H16.7873V95.8738H10.4521V83.2097H22.1982ZM59.9462 66.3879C59.8616 66.3628 59.777 66.3315 59.6924 66.3002C59.4236 66.2062 59.1466 66.1373 58.8653 66.0934C58.7869 66.0934 58.7117 66.0621 58.6334 66.0495C58.4636 66.0204 58.2919 66.0035 58.1196 65.9994H57.706C57.6675 65.995 57.6286 65.995 57.5901 65.9994C57.5431 66.0041 57.4961 66.0041 57.4491 65.9994C57.2385 66.0063 57.0286 66.0314 56.8225 66.0746C56.6877 66.0997 56.553 66.1373 56.4214 66.1717C56.2272 66.2187 56.0329 66.2626 55.8449 66.3284C55.5535 66.4255 55.2653 66.5164 54.9739 66.6072L54.7139 66.6856C54.6606 66.7044 54.6042 66.7263 54.5509 66.7514C54.518 66.7717 54.4801 66.7824 54.4413 66.7827C54.3958 66.7905 54.3523 66.8065 54.3128 66.8297C54.243 66.8701 54.1665 66.8989 54.0872 66.9143C54.0688 66.9196 54.0509 66.9271 54.034 66.9362C53.8429 67.0365 53.6361 67.1023 53.4418 67.1931C53.2946 67.2245 53.1598 67.2871 53.0157 67.3278C52.9812 67.3369 52.9474 67.3498 52.9154 67.3654C52.7525 67.4469 52.6021 67.5221 52.4141 67.5879L52.1008 67.6976C51.8627 67.7728 51.6246 67.8542 51.3833 67.9263C51.253 67.9679 51.1186 67.9952 50.9823 68.0077C50.9472 68.0093 50.9124 68.0159 50.8789 68.0265C50.8529 68.0428 50.8213 68.0485 50.7912 68.0422C50.7661 68.0422 50.7442 68.0861 50.7003 68.0735C50.6565 68.061 50.6408 68.0735 50.6095 68.0735C50.5753 68.0673 50.5402 68.0673 50.5061 68.0735C50.4707 68.0764 50.4371 68.0895 50.4089 68.1111C50.3876 68.119 50.3644 68.119 50.3431 68.1111H50.0768C50.0361 68.1111 50.0173 68.1456 49.9828 68.155C49.9484 68.1644 49.917 68.1362 49.8794 68.155C49.813 68.1901 49.7363 68.2001 49.6633 68.1832C49.6413 68.1832 49.6257 68.1832 49.6069 68.1832C49.5881 68.1832 49.5348 68.2302 49.4941 68.1832C49.4533 68.1362 49.4032 68.2365 49.3437 68.2114C49.2841 68.1863 49.2465 68.2271 49.1964 68.2365L48.9771 68.2647C48.8643 68.2835 48.7515 68.2866 48.6387 68.296L48.3693 68.321L47.9839 68.3649C47.8836 68.3649 47.7865 68.3649 47.6894 68.3931L47.3447 68.4464C47.3338 68.4501 47.3247 68.458 47.3197 68.4683C47.3197 68.4683 47.2946 68.4683 47.2852 68.4683C47.2169 68.4833 47.148 68.4937 47.0784 68.4996C47.0292 68.5119 46.9788 68.5181 46.928 68.5184C46.918 68.5169 46.9077 68.5181 46.8983 68.5222C46.8889 68.526 46.8807 68.5322 46.8748 68.5404C46.8748 68.5592 46.8528 68.5404 46.8372 68.5404C46.7748 68.5332 46.7115 68.5407 46.6523 68.5623C46.6272 68.5999 46.6022 68.5968 46.5646 68.5811C46.5301 68.5686 46.4925 68.5686 46.4581 68.5811C46.4045 68.6002 46.3487 68.6118 46.292 68.6156C46.2137 68.6156 46.1353 68.6156 46.0602 68.6469C45.8596 68.6939 45.6591 68.719 45.4586 68.7534C45.2581 68.7879 45.0607 68.8098 44.8664 68.8505C44.6722 68.8913 44.5531 68.8944 44.4059 68.932L44.221 68.9633C43.9798 69.0041 43.7416 69.073 43.5035 69.1357C43.3907 69.167 43.2811 69.1983 43.1714 69.2391C43.1432 69.2391 43.1087 69.2391 43.0774 69.2391L42.8738 69.2954C42.8211 69.3174 42.7647 69.3302 42.7077 69.333C42.6341 69.3387 42.5633 69.3625 42.5009 69.402C42.5009 69.402 42.479 69.4239 42.4633 69.402C42.4445 69.392 42.4235 69.3866 42.4022 69.3866C42.3809 69.3866 42.3599 69.392 42.3411 69.402C42.27 69.4333 42.1954 69.4556 42.1187 69.4678C42.0779 69.4678 42.0309 69.4678 42.0028 69.5116C41.9464 69.5116 41.8994 69.543 41.8461 69.5461C41.8066 69.547 41.7675 69.5546 41.7302 69.568L41.3824 69.6777C41.2947 69.6996 41.2007 69.709 41.1098 69.7341C40.9322 69.7786 40.7573 69.834 40.5866 69.9001C40.4644 69.9534 40.3359 69.9941 40.2106 70.038C40.0289 70.1007 39.8472 70.179 39.6623 70.2291C39.4774 70.2793 39.3709 70.3262 39.2268 70.3732C39.1516 70.3952 39.0764 70.4077 39.0043 70.4328C39.0043 70.4328 38.9761 70.4328 38.9699 70.4328C38.8978 70.4723 38.8192 70.4989 38.738 70.5111C38.666 70.5111 38.6064 70.5706 38.5344 70.5863C38.4476 70.6064 38.3633 70.6367 38.2837 70.6772C38.1399 70.706 37.9986 70.7458 37.8607 70.7962C37.7216 70.8222 37.5844 70.8576 37.4503 70.9027C37.2937 70.9529 37.137 70.9967 36.9835 71.0594C36.8926 71.0939 36.7986 71.1158 36.7046 71.144C36.6106 71.1722 36.4978 71.1973 36.3913 71.2286C36.2049 71.2725 36.0219 71.3292 35.843 71.3978C35.6143 71.4573 35.395 71.5544 35.16 71.6014C34.9573 71.6453 34.7574 71.702 34.5616 71.7706H34.5396C34.4904 71.8016 34.4366 71.8239 34.3798 71.8364C34.3234 71.8364 34.2702 71.8834 34.2138 71.8991C34.101 71.9241 33.9976 71.9837 33.8817 72.0087C33.7658 72.0338 33.4681 72.2187 33.3052 72.1435C33.3234 72.093 33.3487 72.0457 33.3804 72.0025C33.496 71.7919 33.6006 71.5754 33.6937 71.3539C33.7266 71.2753 33.7745 71.2042 33.8347 71.144C34.0064 70.9795 34.1655 70.8025 34.3109 70.6145C34.404 70.4889 34.5089 70.3723 34.6242 70.2667C34.7351 70.1533 34.8398 70.0342 34.9375 69.9095C35.0256 69.8065 35.1002 69.6927 35.16 69.5712C35.2405 69.4537 35.306 69.3262 35.3542 69.1921C35.3793 69.0824 35.3542 69.0135 35.4451 68.9226C35.541 68.8433 35.6463 68.776 35.7584 68.7221C35.843 68.6751 35.9025 68.5999 35.984 68.5498C36.0561 68.5156 36.1234 68.4724 36.1845 68.4213C36.3192 68.2929 36.4508 68.2991 36.6138 68.2208C36.97 68.0601 37.3172 67.8799 37.654 67.6819C37.8369 67.5848 38.0265 67.4999 38.2211 67.4281C38.5782 67.2746 38.9323 67.1148 39.2957 66.9863L39.609 66.861C41.4889 66.1467 43.4283 65.2944 45.4022 64.8245C45.8941 64.7054 46.3829 64.5864 46.881 64.4955C47.2633 64.4234 47.6424 64.3702 48.0246 64.32C48.2114 64.3016 48.3968 64.2699 48.5792 64.226C48.8267 64.1978 49.0742 64.1822 49.3217 64.1759C49.6727 64.1759 50.0016 64.154 50.3525 64.1258C50.4841 64.1258 50.6157 64.1007 50.7473 64.0945C50.8297 64.0907 50.9109 64.1139 50.9792 64.1602C51.0136 64.1602 51.3363 64.3702 51.3677 64.3357C51.399 64.3012 51.3677 64.2981 51.3677 64.2824L51.3363 64.248C51.2142 64.1414 50.9917 64.0036 50.9196 63.8438C50.8657 63.6198 50.8344 63.3911 50.8256 63.1608C50.7959 62.9646 50.7959 62.7648 50.8256 62.5686C50.8347 62.3603 50.8783 62.155 50.9541 61.9608C51.0096 61.8138 51.0578 61.6644 51.0982 61.5128C51.1327 61.4062 51.1672 61.2997 51.2048 61.1994C51.2865 61.0017 51.3915 60.8144 51.5181 60.6417C51.5745 60.554 51.6403 60.4694 51.6904 60.3786C51.7678 60.2059 51.8577 60.0396 51.9598 59.8804C52.1181 59.636 52.2625 59.3829 52.3922 59.1222C52.552 58.8621 52.7055 58.6021 52.8747 58.3546C52.9092 58.3013 52.9311 58.248 52.9624 58.1916C52.9938 58.1352 53.0502 58.0506 53.0878 57.9754C53.1749 57.7903 53.2472 57.5985 53.304 57.4021C53.351 57.2642 53.3917 57.1232 53.4324 56.9854C53.4512 56.9259 53.4731 56.8673 53.4982 56.8099C53.5577 56.6846 53.5515 56.5154 53.6611 56.4183C53.6972 56.3895 53.7388 56.3682 53.7833 56.3556C54.0277 56.2648 54.2627 56.1739 54.4977 56.0642C54.6606 55.9859 54.811 55.8888 54.9676 55.8011C54.9949 55.7851 55.0212 55.7672 55.046 55.7478C55.1848 55.6519 55.312 55.5407 55.4251 55.4157C55.4251 55.4157 54.7389 55.541 54.6543 55.5692C54.4388 55.6792 54.1969 55.7277 53.9556 55.7102C53.4324 55.6005 53.329 54.6637 53.2194 54.2157C52.9844 53.163 54.0026 52.5457 54.4726 51.7374C54.6061 51.5481 54.7029 51.3357 54.7577 51.1108C54.7718 51.0262 54.7906 50.9425 54.8141 50.8601C54.8705 50.6659 54.9238 50.4685 54.9739 50.2711C54.9927 50.1959 55.0209 50.1238 55.0334 50.0486C55.0359 49.9897 55.0432 49.9308 55.0554 49.8732C55.0999 49.7751 55.1152 49.6664 55.0992 49.5599C55.0428 49.6006 55.0334 49.6977 55.0084 49.7604C54.9833 49.823 54.93 49.9766 54.8924 50.0737C54.8188 50.2886 54.7298 50.4979 54.6261 50.7003C54.4422 51.0334 54.2392 51.3555 54.0183 51.6653C53.8284 51.9451 53.6188 52.2108 53.3917 52.4611C53.2028 52.6585 53.027 52.8678 52.8653 53.0878C52.8027 53.1786 52.7369 53.2726 52.6679 53.3572C52.6144 53.4171 52.567 53.4822 52.5269 53.5515C52.4329 53.815 52.4329 54.1026 52.5269 54.3661C52.5771 54.6105 52.6742 54.8517 52.7149 55.0992C52.7253 55.1741 52.7463 55.2468 52.7776 55.3154C52.8597 55.5109 52.9649 55.6961 53.0909 55.8669C53.2078 55.9803 53.2783 56.1335 53.2883 56.2961C53.2883 56.4058 53.2068 56.4935 53.1661 56.5906C53.1485 56.6345 53.1266 56.6765 53.1003 56.7159C52.9969 56.882 52.8998 57.0574 52.787 57.2172C52.6742 57.377 52.5301 57.6089 52.4141 57.8094C52.3577 57.9128 52.292 58.013 52.2262 58.1227C52.0811 58.3304 51.9514 58.5482 51.8376 58.7744C51.7499 58.9561 51.6465 59.1284 51.5557 59.3102C51.4648 59.4919 51.3489 59.7018 51.2424 59.8992C51.2195 59.9493 51.1913 59.9966 51.1578 60.0402C51.1396 60.0653 51.1249 60.0925 51.1139 60.1216C51.0512 60.2752 50.9854 60.435 50.9259 60.5853C50.8664 60.7357 50.8068 60.8987 50.7411 61.0365C50.7176 61.0898 50.6966 61.144 50.6784 61.1994C50.6308 61.3104 50.591 61.4244 50.5593 61.541C50.5405 61.6318 50.4873 61.707 50.4747 61.801C50.4591 61.8881 50.4371 61.974 50.4089 62.0579C50.3651 62.2114 50.3181 62.3712 50.2742 62.5154C50.2492 62.6062 50.2272 62.6971 50.2022 62.7848C50.2022 62.8224 50.1834 62.86 50.1771 62.9007C50.1708 62.9415 50.1238 62.9571 50.1395 63.0041C50.1552 63.0511 50.1395 63.0041 50.1207 63.0229C50.0944 63.0392 50.064 63.0477 50.033 63.048C49.9437 63.0599 49.8537 63.0674 49.7635 63.0699C49.6971 63.0746 49.6313 63.084 49.5661 63.0981C49.4063 63.12 49.2528 63.1451 49.0868 63.1608C48.9207 63.1764 48.833 63.2109 48.7045 63.2172C48.5761 63.2234 48.5353 63.2454 48.4507 63.2548C48.4031 63.2557 48.3561 63.2664 48.3129 63.2861L48.2565 63.3018L47.7802 63.355C47.7188 63.3503 47.6568 63.3503 47.5954 63.355C47.523 63.3691 47.4497 63.3785 47.3761 63.3832C47.3009 63.3832 47.2257 63.4052 47.1505 63.424C47.0753 63.4428 47.0064 63.4584 46.9312 63.471C46.7463 63.4992 46.5709 63.5556 46.3891 63.5963C46.2074 63.637 46.0758 63.6621 45.9317 63.6934C45.7801 63.7147 45.6303 63.747 45.4837 63.7905C45.4567 63.7952 45.4291 63.7952 45.4022 63.7905C45.3771 63.7905 45.3521 63.7905 45.3333 63.8062C45.2888 63.8385 45.2346 63.8551 45.1797 63.8532C45.1011 63.8545 45.024 63.8736 44.9542 63.9096C44.8946 63.9322 44.8326 63.9469 44.7693 63.9535C44.7314 63.9575 44.6941 63.9682 44.6596 63.9848C44.6314 64.0001 44.6007 64.0099 44.5688 64.013C44.5183 64.018 44.4695 64.033 44.4247 64.0569H44.3902C44.2335 64.0569 44.0957 64.1571 43.939 64.1822C43.8789 64.1979 43.8209 64.221 43.7667 64.2511C43.7228 64.2787 43.6708 64.2896 43.6194 64.2824C43.6147 64.2796 43.6094 64.2784 43.6038 64.2784C43.5981 64.2784 43.5928 64.2796 43.5881 64.2824C43.5599 64.3169 43.5161 64.32 43.4785 64.3357C43.3594 64.3858 43.2372 64.4297 43.1181 64.4767C43.0846 64.4886 43.052 64.5033 43.021 64.5206C42.9605 64.5632 42.8882 64.586 42.8142 64.5864C42.7704 64.5864 42.7328 64.6302 42.6826 64.6365C42.6325 64.6428 42.6388 64.7023 42.5855 64.6898C42.5322 64.6772 42.5103 64.7336 42.4664 64.7273C42.4226 64.7211 42.4007 64.7681 42.3568 64.7587C42.3129 64.7493 42.3317 64.7931 42.3067 64.7994C42.2816 64.8057 42.2597 64.7994 42.2409 64.8182C42.2221 64.837 42.1688 64.8182 42.15 64.8495C42.0842 64.8495 42.0435 64.8997 41.984 64.9185C41.9288 64.9373 41.8762 64.9623 41.8273 64.9937C41.7364 65.0501 41.6362 65.0845 41.5453 65.1378C41.4545 65.191 41.4137 65.1879 41.3479 65.2224C41.3479 65.2224 41.3166 65.2224 41.3072 65.2537C41.2978 65.285 41.2915 65.2788 41.2696 65.2725C41.237 65.2691 41.2044 65.2738 41.1744 65.2866C41.144 65.2991 41.1176 65.3192 41.0973 65.3446C41.0769 65.3618 41.0581 65.3806 41.0409 65.401C41.0252 65.4166 41.0158 65.401 41.0033 65.401C41.0008 65.3982 40.9976 65.396 40.9939 65.3944C40.9904 65.3931 40.9867 65.3922 40.9829 65.3922C40.9792 65.3922 40.9754 65.3931 40.972 65.3944C40.9682 65.396 40.9651 65.3982 40.9626 65.401C40.9187 65.426 40.8874 65.4793 40.8247 65.473C40.7808 65.5482 40.6806 65.5388 40.6273 65.6046C40.5208 65.6203 40.4518 65.708 40.3516 65.7425C40.2758 65.7732 40.2025 65.8098 40.1323 65.8521C40.0652 65.8913 39.9963 65.927 39.9255 65.9587C39.772 66.0245 39.6122 66.0997 39.4712 66.178C39.3897 66.2218 39.3051 66.2594 39.2174 66.3002C39.0576 66.3754 38.9041 66.4412 38.738 66.5226C38.6309 66.5693 38.5262 66.6213 38.4247 66.6793C38.3652 66.7169 38.2931 66.7326 38.2336 66.767C37.2059 67.356 36.1125 67.8009 35.1255 68.4683C34.5302 68.8693 34.2764 69.9001 33.9005 70.4954C33.7263 70.7978 33.5004 71.0672 33.2331 71.2913C33.0226 71.4467 32.8267 71.6209 32.6472 71.8114L32.5 71.9617C32.4621 72.0015 32.4263 72.0432 32.3934 72.0871C32.3558 72.1491 32.3045 72.2017 32.243 72.2406C32.2271 72.2472 32.2127 72.2575 32.2014 72.2704C32.1901 72.2835 32.1816 72.2992 32.1772 72.3158C32.1772 72.3409 32.1491 72.3534 32.1303 72.369C32.0701 72.4167 32.019 72.4753 31.9799 72.5414C31.9344 72.6216 31.8787 72.6952 31.8138 72.7607C31.7784 72.7842 31.7392 72.8011 31.6979 72.8108C31.6929 72.813 31.6875 72.8143 31.6822 72.8143C31.6769 72.8143 31.6716 72.813 31.6666 72.8108C31.5976 72.8108 31.5976 72.792 31.6102 72.7262C31.6355 72.6131 31.6691 72.5022 31.7104 72.3941C31.7386 72.2939 31.7762 72.1936 31.8044 72.0808C31.8238 72.0141 31.8536 71.9508 31.8921 71.8928C31.9611 71.7894 32.03 71.686 32.0958 71.5795C32.1616 71.473 32.2211 71.4323 32.265 71.3445C32.3884 71.2226 32.4818 71.0735 32.5376 70.909C32.5893 70.7922 32.6294 70.6703 32.6566 70.5456C32.6754 70.4547 32.7099 70.367 32.7287 70.2761C32.7475 70.1853 32.7475 70.1195 32.7631 70.0411C32.7954 69.8832 32.8559 69.7325 32.9417 69.5962C32.9825 69.5304 33.0075 69.4615 33.0483 69.3988C33.089 69.3362 33.1047 69.3393 33.0984 69.3142C33.0921 69.2892 33.0545 69.3142 33.0357 69.3393C33.0169 69.3644 32.9543 69.4051 32.9167 69.4427C32.8584 69.5029 32.807 69.569 32.7631 69.6401C32.7033 69.7212 32.6538 69.8096 32.6159 69.9033C32.5626 70.0255 32.5407 70.1539 32.5 70.2761C32.4592 70.3983 32.3872 70.5174 32.3433 70.6427C32.2919 70.8138 32.2161 70.9761 32.1177 71.1252C32.0676 71.191 32.03 71.2662 31.983 71.3382C31.936 71.4103 31.889 71.473 31.8389 71.5388C31.7612 71.6393 31.6891 71.7437 31.6227 71.8521C31.5914 71.9085 31.5569 71.9617 31.5287 72.015C31.5005 72.0683 31.4911 72.0714 31.4754 72.1027C31.461 72.1334 31.4485 72.1648 31.4378 72.1967C31.4128 72.2563 31.4034 72.3158 31.3814 72.3722C31.3514 72.454 31.3272 72.5376 31.3094 72.6228C31.287 72.6827 31.2576 72.7394 31.2216 72.792C31.2093 72.8152 31.1989 72.8393 31.1903 72.8641C31.1731 72.9117 31.1499 72.9568 31.1214 72.9988C31.0869 73.0646 31.0243 73.0834 30.9616 73.1147L30.8519 73.1774C30.7897 73.2166 30.7236 73.2491 30.6545 73.2745H30.5888C30.5524 73.2833 30.5168 73.2946 30.4822 73.309L30.3412 73.3623C30.2911 73.3623 30.2723 73.3623 30.2848 73.3121C30.3256 73.1586 30.3632 72.9988 30.407 72.8547C30.4509 72.7106 30.4666 72.604 30.4916 72.4787C30.5167 72.3534 30.5512 72.1372 30.5919 71.968C30.6316 71.8339 30.6589 71.6967 30.6733 71.5576C30.6733 71.5168 30.6984 71.4761 30.7047 71.4354C30.7203 71.3163 30.736 71.1973 30.7454 71.0751C30.7508 71.0177 30.7656 70.9617 30.7893 70.909L30.9804 70.5236C31.004 70.4744 31.0346 70.4293 31.0713 70.3889C31.1798 70.246 31.2969 70.1101 31.4222 69.9816C31.4569 69.9446 31.4883 69.9048 31.5162 69.8625C31.5381 69.8281 31.5726 69.7999 31.5976 69.7654C31.6979 69.6464 31.795 69.5273 31.9109 69.4145C32.0441 69.2835 32.1675 69.1432 32.2806 68.9947C32.3872 68.8505 32.5 68.7127 32.6159 68.578C32.7318 68.4432 32.7725 68.3931 32.8477 68.2991C32.9229 68.2051 33.0483 68.0516 33.1611 67.9263C33.2738 67.8009 33.3114 67.7352 33.3741 67.6318C33.4104 67.587 33.4553 67.55 33.5057 67.5221C33.5809 67.4594 33.6592 67.403 33.7313 67.3372C33.7792 67.2937 33.8331 67.2567 33.8911 67.2276C33.9296 67.2019 33.9663 67.1737 34.0007 67.143C34.0646 67.0863 34.1317 67.0327 34.2013 66.9832C34.2702 66.9393 34.3078 66.8704 34.3798 66.8328C34.4682 66.7852 34.5522 66.7297 34.6305 66.6668C34.696 66.6122 34.7662 66.564 34.8404 66.5226C34.8498 66.5186 34.8573 66.5114 34.862 66.502C34.8667 66.4929 34.8677 66.4825 34.8655 66.4725C34.8655 66.4349 34.8655 66.4506 34.8968 66.4725C34.9281 66.4944 34.9156 66.4725 34.9281 66.4725C35.0159 66.4067 35.1193 66.3566 35.207 66.2845C35.3163 66.2131 35.421 66.1348 35.5203 66.0495C35.5767 66.0016 35.6362 65.9574 35.6989 65.9179L36.1908 65.5388C36.2723 65.4793 36.3443 65.4104 36.432 65.3571C36.4797 65.3239 36.5248 65.2872 36.5668 65.2474C36.6116 65.1983 36.6658 65.1588 36.7266 65.1315C36.7328 65.1328 36.7391 65.1328 36.7454 65.1315C36.7911 65.0689 36.8544 65.0209 36.9271 64.9937C36.9741 64.9717 37.0054 64.931 37.0493 64.9059C37.2561 64.7712 37.4597 64.6334 37.6759 64.4955C37.7674 64.4165 37.8658 64.3464 37.9704 64.2856C38.0174 64.2448 38.0801 64.2292 38.1333 64.1916C38.2461 64.1164 38.3652 64.0506 38.4811 63.9785C38.5344 63.9441 38.5845 63.8971 38.6378 63.8595C38.6747 63.8184 38.7224 63.7893 38.7756 63.7749C38.7944 63.7717 38.811 63.7617 38.8226 63.7467C38.8665 63.7 38.9213 63.6655 38.9824 63.6464C39.0047 63.6401 39.0257 63.6308 39.0451 63.6182C39.1453 63.543 39.2581 63.4898 39.3584 63.4208C39.4586 63.3519 39.515 63.3362 39.5902 63.2892C39.6617 63.2426 39.7359 63.2009 39.8127 63.1639C39.7951 63.2031 39.7876 63.2463 39.7908 63.2892C39.819 63.2673 39.8409 63.2391 39.8816 63.2391C39.9007 63.2366 39.9183 63.2278 39.9318 63.214C40.0405 63.1392 40.1558 63.074 40.2764 63.0198C40.3616 62.9797 40.4434 62.9324 40.5208 62.8788C40.5712 62.8409 40.6273 62.8114 40.6868 62.7911C40.7329 62.7716 40.778 62.7497 40.8216 62.7253L41.0879 62.6031C41.1327 62.5887 41.1697 62.557 41.1913 62.5154C41.1913 62.5154 41.2101 62.4966 41.2195 62.5154C41.2289 62.5342 41.2539 62.5154 41.2633 62.5154C41.2699 62.5013 41.2806 62.4893 41.294 62.4815C41.3075 62.4737 41.3229 62.4702 41.3385 62.4715C41.3815 62.4706 41.4231 62.4561 41.4576 62.4308C41.5149 62.3982 41.5748 62.37 41.6362 62.3462C41.6581 62.3402 41.6791 62.3318 41.6988 62.3211C41.7991 62.249 41.9213 62.2208 42.0121 62.155C42.0466 62.1369 42.082 62.1212 42.1187 62.108C42.2039 62.082 42.2854 62.0441 42.3599 61.9953H42.3819C42.551 61.9514 42.6952 61.8449 42.8644 61.7916C43.0336 61.7383 43.1369 61.6945 43.2685 61.6381C43.4001 61.5817 43.6226 61.494 43.798 61.4156C43.9735 61.3373 44.0612 61.2934 44.1928 61.2339C44.2223 61.2151 44.2555 61.2023 44.2899 61.1963C44.3253 61.1922 44.3592 61.1781 44.3871 61.1556C44.4851 61.0964 44.5904 61.05 44.7004 61.0177L44.8382 60.9582C44.9886 60.8955 45.1515 60.8517 45.2925 60.7921C45.4335 60.7326 45.6059 60.6699 45.7688 60.5979C45.9317 60.5258 46.0821 60.4632 46.2262 60.3911L46.3359 60.3472L46.7244 60.1812C46.7664 60.1592 46.8121 60.1455 46.8591 60.1404C46.8688 60.142 46.8785 60.1408 46.8873 60.137C46.8964 60.1329 46.9039 60.1267 46.9092 60.1185C46.9312 60.0715 46.9938 60.0934 47.022 60.0558C47.0628 60.0715 47.0847 60.0339 47.1129 60.0245C47.1411 60.0151 47.1693 59.9807 47.21 59.9963C47.2219 59.9976 47.2338 59.9963 47.2454 59.9926C47.2567 59.9885 47.267 59.9825 47.2758 59.9744C47.372 59.9205 47.4791 59.8895 47.5891 59.8835C47.674 59.8685 47.7577 59.8475 47.8398 59.8209C47.8548 59.8174 47.868 59.809 47.8777 59.7971C47.8874 59.7851 47.8927 59.7704 47.893 59.7551C47.9121 59.5802 47.9457 59.4073 47.9933 59.2381C48.0278 59.1316 48.0967 59.0438 48.1374 58.9248C48.2721 58.5895 48.3818 58.2418 48.504 57.9034C48.551 57.7687 48.598 57.6339 48.6481 57.5023C48.6982 57.3708 48.7358 57.189 48.7922 57.0355C48.9301 56.6595 49.0648 56.2804 49.2058 55.9044C49.3656 55.4783 49.5536 55.0616 49.7228 54.6512C49.7889 54.4939 49.8456 54.3329 49.892 54.1687C49.9421 53.9682 49.9734 53.7614 50.0392 53.564C50.0737 53.4606 50.0894 53.3541 50.1176 53.2507C50.1693 53.0427 50.2351 52.8387 50.3149 52.6397C50.3682 52.5144 50.4559 52.4173 50.4998 52.2888C50.6126 51.9442 50.5844 51.5839 50.8131 51.2799C51.3927 50.5405 52.3327 50.1677 53.1379 49.7134C53.8554 49.3061 54.5666 48.8862 55.2496 48.4257C55.5285 48.2377 55.8011 48.0372 56.083 47.8523C56.3356 47.7123 56.5803 47.5584 56.8162 47.3917C57.2019 47.0258 57.4654 46.5499 57.5713 46.0288C57.6026 45.8722 57.6465 45.7155 57.6841 45.5651C57.7217 45.4147 57.7311 45.3395 57.7499 45.2236C57.7687 45.1077 57.7937 44.9103 57.8157 44.7756C57.8254 44.6985 57.8254 44.6208 57.8157 44.5437C57.8157 44.4999 57.8157 44.4873 57.7624 44.4779C57.6399 44.451 57.5139 44.4457 57.3896 44.4623H57.3081L56.8945 44.4905C56.7498 44.4967 56.6053 44.471 56.4715 44.4153C56.2522 44.3231 56.078 44.1489 55.9859 43.9296C55.9232 43.7918 55.9326 43.6163 55.8606 43.4941C55.8011 43.3525 55.7722 43.1996 55.776 43.0461C55.776 42.9176 55.7415 42.7923 55.729 42.6638L55.7008 42.385C55.6923 42.3183 55.6789 42.2521 55.6601 42.1876C55.646 42.1099 55.646 42.0303 55.6601 41.9526C55.6789 41.7678 55.7008 41.586 55.7259 41.4012C55.7791 41.0377 55.8543 40.6774 55.9201 40.3171C55.9737 40.0392 56.0417 39.7641 56.1238 39.4931C56.1896 39.2989 56.2585 39.1109 56.3368 38.9229C56.3744 38.8289 56.4151 38.7349 56.459 38.6409C56.475 38.6105 56.4929 38.5814 56.5123 38.5532C56.5342 38.5187 56.5373 38.4811 56.5593 38.4466C56.611 38.3893 56.6702 38.3386 56.7347 38.2963C56.9672 38.0992 57.2307 37.9425 57.5149 37.8326C57.8282 37.7166 58.1415 37.6822 58.4548 37.5725C58.802 37.4334 59.162 37.3284 59.5295 37.2592L59.8428 37.2185C60.377 37.1417 60.9168 37.1113 61.4564 37.1276C61.6732 37.1119 61.8912 37.1119 62.108 37.1276C62.3618 37.2116 62.5858 37.3673 62.7535 37.5756C62.8932 37.7257 63.0063 37.8983 63.0887 38.0863C63.1824 38.3066 63.2191 38.5469 63.1952 38.785C63.1696 39.035 63.1075 39.2801 63.0104 39.5119C62.8381 40.0101 62.6375 40.4988 62.484 41.0001C62.4496 41.1775 62.437 41.3586 62.4464 41.539C62.4355 41.6575 62.4069 41.7737 62.3618 41.8837C62.3211 41.9933 62.1832 42.1782 62.202 42.291C62.3054 42.2722 62.4308 42.1406 62.5154 42.0748C62.5614 42.0397 62.6097 42.0071 62.6595 41.9777C62.7754 41.9088 62.8725 41.8148 62.9885 41.749C63.0474 41.7117 63.1091 41.6791 63.1733 41.6518C63.236 41.6299 63.2924 41.5954 63.355 41.5704C63.4208 41.5459 63.4891 41.529 63.5587 41.5202C63.617 41.5071 63.6781 41.5149 63.731 41.5422C63.7699 41.5613 63.8128 41.571 63.8563 41.5704C63.8908 41.5751 63.9246 41.5845 63.9566 41.5986C64.0095 41.6261 64.0706 41.634 64.1289 41.6205C64.1602 41.6205 64.1947 41.5829 64.226 41.6205C64.2574 41.6581 64.2417 41.6205 64.248 41.6205C64.3169 41.5672 64.3827 41.6205 64.4516 41.6205C64.4516 41.6205 64.4704 41.6205 64.4767 41.6424C64.5074 41.6935 64.5519 41.7349 64.6052 41.7615C64.6052 41.7615 64.6302 41.7772 64.6302 41.7834C64.6302 41.8367 64.6741 41.8524 64.6992 41.8837L64.9498 42.1751C64.9749 42.2095 64.9905 42.2534 65.0156 42.2847C65.1159 42.4226 65.2192 42.5573 65.3289 42.6952C65.3502 42.7227 65.3731 42.7491 65.3978 42.7735C65.431 42.8117 65.4527 42.8584 65.4605 42.9082C65.4649 42.9267 65.4649 42.9461 65.4605 42.9646C65.4383 43.022 65.4235 43.0821 65.4166 43.1432C65.4069 43.2438 65.3759 43.3409 65.3258 43.4283C65.3239 43.4396 65.3239 43.4515 65.3258 43.4628C65.2728 43.5963 65.1838 43.7122 65.0689 43.798L64.9091 43.9359C64.8718 43.9751 64.8285 44.0079 64.7806 44.033C64.7602 44.044 64.7421 44.059 64.7273 44.0769C64.6735 44.1279 64.6136 44.1721 64.5488 44.2085C64.4961 44.2423 64.4488 44.2834 64.4078 44.3307C64.3529 44.3739 64.2953 44.4137 64.2354 44.4497C64.1922 44.4748 64.153 44.5064 64.1195 44.5437C64.1117 44.5572 64.101 44.5691 64.0882 44.5782C63.9409 44.6659 63.8219 44.7944 63.6652 44.8696C63.6179 44.9043 63.5609 44.9231 63.5023 44.9228H63.4804C63.4334 44.973 63.355 44.9604 63.3018 45.0043C63.3018 45.0043 63.3018 45.0043 63.283 45.0043C63.2642 45.0043 63.2015 45.02 63.1576 45.0043C63.111 44.998 63.0633 44.998 63.0167 45.0043C62.9258 44.9667 62.8193 44.9604 62.7597 44.8633C62.7378 44.832 62.7127 44.8038 62.6908 44.7693C62.683 44.7521 62.6711 44.737 62.6563 44.7254C62.532 44.6355 62.4254 44.5227 62.343 44.3933C62.2678 44.2837 62.1989 44.1709 62.1237 44.0612C62.0892 44.008 62.0517 43.9578 62.0141 43.9077C61.9765 43.8576 61.989 43.8701 61.9733 43.8701C61.9577 43.8701 61.9451 43.8137 61.9326 43.8106C61.9179 43.8077 61.9044 43.8012 61.8934 43.7911C61.8825 43.7811 61.8743 43.7683 61.8699 43.7542C61.8643 43.741 61.8558 43.7294 61.8449 43.72C61.8342 43.7109 61.8211 43.7044 61.8073 43.7009C61.7853 43.7009 61.7822 43.6476 61.754 43.6288C61.7258 43.61 61.707 43.6288 61.7007 43.6288C61.6694 43.7667 61.6349 43.9014 61.6068 44.0362C61.6068 44.0925 61.5817 44.1521 61.5691 44.2053C61.5378 44.3401 61.5378 44.4748 61.5065 44.6095C61.4846 44.6941 61.5065 44.785 61.472 44.8727C61.4827 44.9773 61.4773 45.0829 61.4564 45.186C61.4564 45.2894 61.4313 45.3928 61.4282 45.4993C61.4147 45.6228 61.42 45.7472 61.4438 45.869C61.4733 45.9975 61.4899 46.1288 61.494 46.2607C61.494 46.3171 61.494 46.3766 61.5128 46.433C61.5316 46.4894 61.5128 46.4706 61.5629 46.4643C61.613 46.4581 61.6067 46.4643 61.6193 46.4643C61.6776 46.4759 61.738 46.4684 61.7916 46.4424C62.031 46.381 62.2638 46.297 62.4872 46.1917C63.0543 45.9317 63.6401 45.8126 64.1884 45.515C64.7324 45.207 65.3013 44.946 65.8897 44.7348C66.4913 44.5312 67.0177 44.1865 67.6255 43.9923C68.014 43.867 68.8787 43.5317 69.1921 43.9547C69.3011 44.1214 69.4004 44.2937 69.4897 44.4717C69.6821 44.8163 69.8303 45.1835 69.9315 45.5651C69.9957 45.8202 70.0399 46.0802 70.0631 46.3421C70.085 46.6022 70.0631 46.881 70.1007 47.1348C70.1846 47.4766 70.1922 47.8329 70.1226 48.1782C70.0903 48.3643 70.0797 48.5535 70.0913 48.7421C70.0913 49.1996 70.0913 49.6601 70.0631 50.1176C70.0317 51.1264 70.0098 52.151 69.8813 53.1567C69.8344 53.4932 69.8438 53.8353 69.9095 54.1687C69.9706 54.5707 69.9706 54.9792 69.9095 55.3812C69.9074 55.4348 69.9023 55.4881 69.8939 55.541C69.8813 55.6009 69.8813 55.6629 69.8939 55.7227C69.8961 55.7343 69.8958 55.7459 69.8929 55.7572C69.8901 55.7685 69.8851 55.7791 69.8782 55.7885C69.8563 55.8136 69.8406 55.8387 69.8782 55.8669C69.9158 55.8951 69.8782 55.8857 69.8782 55.8951C69.8782 55.9044 69.8438 55.9264 69.8531 55.9546C69.8719 56.0125 69.8719 56.0752 69.8531 56.1332C69.8444 56.2394 69.8243 56.3443 69.7936 56.4465C69.7905 56.4546 69.7905 56.4634 69.7936 56.4715C69.7968 56.5671 69.7905 56.6624 69.7748 56.7567C69.7748 56.8977 69.7372 57.0355 69.7435 57.1734C69.741 57.2786 69.7294 57.3833 69.709 57.4867C69.7059 57.5252 69.7059 57.5641 69.709 57.6026C69.709 57.6527 69.709 57.7029 69.709 57.753C69.7084 57.8031 69.6999 57.8526 69.684 57.9003C69.6793 57.9344 69.6793 57.9695 69.684 58.0037C69.6833 58.1199 69.6752 58.2361 69.6589 58.3514C69.6589 58.4548 69.6401 58.5582 69.6338 58.6647C69.6338 58.7055 69.6338 58.7431 69.6338 58.7807C69.6075 58.8615 69.595 58.9464 69.5962 59.0313C69.6009 59.0498 69.6009 59.0692 69.5962 59.0877C69.5749 59.1588 69.5643 59.2328 69.5649 59.307C69.563 59.3691 69.5568 59.4308 69.5461 59.4919C69.5323 59.5643 69.5251 59.6376 69.5242 59.7112C69.5257 59.7385 69.5257 59.7654 69.5242 59.7927C69.4803 60.0151 69.4678 60.2438 69.4176 60.4694C69.4023 60.5534 69.392 60.638 69.3863 60.7232C69.3832 60.7727 69.3769 60.8219 69.3675 60.8705C69.3424 61.0021 69.3111 61.1274 69.286 61.259C69.261 61.3906 69.261 61.4407 69.2422 61.5347C69.2359 61.6462 69.2171 61.7565 69.1858 61.8637C69.1842 61.874 69.1842 61.8847 69.1858 61.895C69.1764 62.1049 69.1554 62.3139 69.1231 62.5216C69.12 62.5486 69.12 62.5761 69.1231 62.6031C69.1347 62.6908 69.1557 62.777 69.1858 62.86C69.1964 62.8848 69.2027 62.9114 69.2046 62.9383C69.2243 63.0524 69.2506 63.1655 69.2829 63.2767C69.2829 63.3519 69.3237 63.424 69.3425 63.4992C69.3443 63.5104 69.3443 63.5223 69.3425 63.5336C69.3506 63.6333 69.3725 63.7313 69.4082 63.825C69.4082 63.8469 69.427 63.8689 69.427 63.8908C69.4274 63.9795 69.4389 64.0681 69.4615 64.154C69.4615 64.2386 69.4803 64.3232 69.496 64.4078C69.5201 64.4933 69.5286 64.5823 69.521 64.671C69.5201 64.7214 69.5254 64.7721 69.5367 64.8213C69.5383 64.9495 69.5508 65.0776 69.5743 65.2036C69.5962 65.3245 69.6088 65.447 69.6119 65.5702C69.6094 65.6319 69.6179 65.6933 69.637 65.7519C69.6407 65.7607 69.6426 65.7704 69.6426 65.7801C69.6426 65.7898 69.6407 65.7995 69.637 65.8083C69.626 65.864 69.626 65.9217 69.637 65.9775C69.6448 66.0232 69.6448 66.0696 69.637 66.1153C69.637 66.1529 69.637 66.1905 69.6558 66.2281C69.6746 66.2657 69.6558 66.2657 69.6558 66.272C69.6558 66.2782 69.6307 66.3409 69.6307 66.3754C69.6307 66.4098 69.6307 66.5226 69.6307 66.5947C69.6338 66.6323 69.6273 66.6699 69.6119 66.7044C69.6119 66.7294 69.6119 66.7701 69.6119 66.8046C69.4834 67.5096 69.5524 68.3054 69.4646 69.0291C69.3644 69.8625 69.2265 70.6928 69.0918 71.52L68.3022 75.4803L67.9889 77.4197L67.8291 78.3878C67.827 78.6507 67.8103 78.9132 67.779 79.1742C67.763 79.2287 67.7505 79.2842 67.7414 79.3403C67.7414 79.3967 67.7414 79.4531 67.7414 79.5095C67.7414 79.5659 67.7195 79.663 67.707 79.7413C67.6944 79.8196 67.6725 79.97 67.6506 80.0828C67.6286 80.1956 67.6286 80.2489 67.6161 80.3303C67.6036 80.4118 67.5942 80.4431 67.6568 80.4118C67.7915 80.3491 67.9294 80.2896 68.061 80.2175C68.2487 80.1189 68.4542 80.059 68.6657 80.0421C68.687 80.0374 68.7092 80.0399 68.729 80.049C68.7487 80.0578 68.765 80.0731 68.7754 80.0922C68.8155 80.1439 68.848 80.2006 68.8725 80.2614C68.8913 80.3115 68.932 80.3491 68.9508 80.3993C68.9696 80.4494 69.0041 80.4369 69.0135 80.4619C69.0229 80.487 69.0135 80.5183 69.0354 80.5403C69.0542 80.5744 69.0799 80.6042 69.1106 80.628C69.1288 80.6393 69.1438 80.6543 69.1554 80.6722C69.1667 80.69 69.1739 80.7104 69.1764 80.7314C69.1933 80.8141 69.2403 80.8877 69.308 80.9382C69.308 80.9382 69.3299 80.9538 69.3236 80.9632C69.3174 80.9726 69.3237 81.0196 69.3519 81.0447L69.4834 81.2797C69.5718 81.4348 69.668 81.5855 69.7717 81.7308C69.8187 81.7935 69.85 81.8624 69.8939 81.9345C69.8441 81.9495 69.7924 81.9593 69.7404 81.9627C69.568 81.9627 69.3957 81.9627 69.2234 81.9627C68.9947 81.9627 68.7691 81.9627 68.5404 81.9627H67.8103C67.6302 81.979 67.4491 81.984 67.2683 81.9784C67.1211 81.9784 66.9738 81.9627 66.8234 81.9627C66.7808 81.9552 66.7376 81.9552 66.695 81.9627C66.6727 81.9702 66.6483 81.9702 66.626 81.9627C66.6116 81.9583 66.5966 81.9583 66.5822 81.9627C66.4913 81.994 66.4036 81.9627 66.3127 81.9627C66.2281 81.9674 66.1435 81.9674 66.0589 81.9627C66 81.9665 65.9414 81.9533 65.8897 81.9251C65.8452 81.9004 65.7979 81.8815 65.7487 81.8687C65.6761 81.8411 65.6137 81.7919 65.5702 81.7277C65.5514 81.7089 65.542 81.6838 65.52 81.665C65.51 81.656 65.5022 81.6447 65.4968 81.6325C65.4912 81.6199 65.4887 81.6065 65.4887 81.593C65.4887 81.5397 65.473 81.4865 65.4699 81.4332C65.4668 81.3799 65.4699 81.3235 65.4511 81.2671V81.1825C65.4511 81.1387 65.4292 81.0917 65.426 81.0478C65.4292 81.0071 65.4292 80.9664 65.426 80.9256C65.4119 80.7796 65.4119 80.633 65.426 80.487C65.4148 80.383 65.4148 80.2777 65.426 80.1737C65.426 80.0734 65.4198 79.9691 65.4072 79.8604C65.4072 79.7852 65.4072 79.7068 65.4072 79.6285C65.4119 79.5721 65.4119 79.5157 65.4072 79.4593C65.4072 79.3967 65.4072 79.334 65.4072 79.2745C65.4072 79.1617 65.4072 79.0489 65.3916 78.9361C65.3837 78.7901 65.3837 78.6435 65.3916 78.4975C65.3916 78.3283 65.3916 78.1622 65.3916 77.9962C65.3853 77.8802 65.3853 77.7643 65.3916 77.6484C65.4057 77.5613 65.4057 77.4723 65.3916 77.3852C65.3869 77.3382 65.3869 77.2912 65.3916 77.2442C65.3884 77.1674 65.379 77.091 65.3634 77.0155C65.3336 76.867 65.3179 76.716 65.3164 76.5643C65.3164 76.5643 65.3164 76.5487 65.3164 76.5424C65.285 76.3889 65.2944 76.2291 65.2756 76.0787C65.2756 76.0138 65.2756 75.948 65.2756 75.8813C65.2756 75.7278 65.2756 75.568 65.26 75.4207C65.26 75.3455 65.26 75.2735 65.26 75.1983C65.26 74.9946 65.26 74.7878 65.2349 74.5716C65.2099 74.3555 65.1973 74.2583 65.1816 74.086C65.1801 74.0631 65.1801 74.04 65.1816 74.0171C65.1829 73.8936 65.1776 73.7702 65.166 73.6474C65.1657 73.5227 65.1572 73.3983 65.1409 73.2745C65.1394 73.2673 65.1394 73.2598 65.1409 73.2526C65.1469 73.11 65.1384 72.9675 65.1159 72.8265C65.1159 72.7732 65.1159 72.7168 65.1159 72.6636C65.118 72.5589 65.1127 72.4543 65.1002 72.3503C65.0971 72.3233 65.0971 72.2957 65.1002 72.2688C65.1043 72.1839 65.0989 72.0987 65.0845 72.015C65.0689 71.9147 65.0689 71.8145 65.0595 71.7017C65.0375 71.4479 65.025 71.1973 65.0093 70.9466C65.0093 70.8182 65.0093 70.6897 65.0093 70.5612C65.0093 70.4328 65.0093 70.3231 65.0093 70.2009C65.0093 70.1289 65.0093 70.0537 65.0093 69.9816C65.0093 69.568 65.0093 69.1576 65.0093 68.7472C65.0093 68.6782 65.025 68.6093 65.0093 68.5404C65.0093 68.415 65.0093 68.2928 65.0093 68.1707C65.0093 68.0485 65.0093 67.9294 65.0093 67.8103C65.0172 67.6863 65.0172 67.5616 65.0093 67.4375C65.0062 67.3958 65.0062 67.3539 65.0093 67.3122C65.0093 67.1148 65.0093 66.9174 65.0093 66.72C65.0093 66.6323 65.0093 66.5477 65.0093 66.4631C65.0093 66.2751 65.0093 66.084 65.0093 65.8929C65.0093 65.6328 65.0093 65.3759 65.0281 65.1159C65.0281 65.0187 65.0281 64.9216 65.0281 64.8245C65.0281 64.624 65.0501 64.4234 65.0689 64.2229C65.0689 64.1227 65.0689 64.0193 65.0845 63.9096C65.1096 63.7655 65.1096 63.6182 65.0845 63.4741C65.0497 63.3901 65.0194 63.3043 64.9937 63.2172C64.9435 62.9039 64.8934 62.6188 64.8151 62.3211C64.6932 61.8389 64.6208 61.3454 64.5989 60.8485C64.6033 60.638 64.5835 60.4278 64.5394 60.2219C64.4642 59.8572 64.4419 59.4837 64.4736 59.1128C64.4908 58.875 64.4908 58.6362 64.4736 58.3984C64.4303 58.0199 64.4165 57.6386 64.4328 57.258C64.4328 57.0136 64.4328 56.7692 64.4328 56.5279C64.4328 56.2867 64.4892 56.0172 64.4924 55.7603C64.4914 55.3784 64.5121 54.9965 64.555 54.6167C64.5895 54.3254 64.555 54.0277 64.6208 53.7426C64.6584 53.5045 64.6992 53.2695 64.7399 53.0345C64.8276 52.4925 64.8589 51.9504 64.9623 51.4115C65.0751 50.8225 65.1409 50.2147 65.2913 49.6351C65.3214 49.5464 65.3612 49.4612 65.4104 49.3813C65.4436 49.3033 65.4658 49.2212 65.4762 49.1369C65.5241 48.932 65.5871 48.7311 65.6642 48.5353C65.8114 48.15 65.9963 47.7802 66.1279 47.3949C66.1592 47.3071 66.1811 47.2445 66.0621 47.257C66.0216 47.2648 65.9847 47.2846 65.9555 47.3134C65.7929 47.4713 65.6535 47.6518 65.542 47.8492L65.3978 48.0622C65.3195 48.1875 65.2412 48.3129 65.1691 48.4413C65.0971 48.5698 65.0751 48.645 65.0313 48.7546C64.9874 48.8643 64.9091 49.0398 64.8464 49.1808C64.7681 49.2622 64.7743 49.3813 64.7273 49.4753C64.7273 49.5035 64.7054 49.5348 64.6929 49.563C64.6819 49.595 64.6672 49.6253 64.649 49.6539C64.6146 49.6852 64.649 49.7197 64.624 49.7478C64.5582 49.8794 64.5362 50.0298 64.4642 50.1583C64.4642 50.1834 64.4642 50.2084 64.4642 50.2241C64.4234 50.2946 64.3968 50.3723 64.3858 50.4528C64.3783 50.4719 64.373 50.492 64.3702 50.5123C64.3648 50.5581 64.3523 50.6026 64.3326 50.6439C64.3197 50.6668 64.3135 50.6928 64.3138 50.7191C64.3216 50.7404 64.3216 50.7636 64.3138 50.7849C64.2824 50.8194 64.2918 50.8632 64.2762 50.9008C64.2448 50.9917 64.2542 51.0888 64.2292 51.1828C64.2041 51.2768 64.2292 51.2893 64.2041 51.3426C64.179 51.3959 64.1884 51.4021 64.1759 51.4303C64.0565 51.6074 63.9688 51.8032 63.9159 52.01C63.9174 52.0742 63.9112 52.1384 63.8971 52.2011C63.8657 52.2888 63.8971 52.3859 63.8375 52.4705C63.8469 52.5191 63.8469 52.5692 63.8375 52.6178C63.8375 52.7369 63.8219 52.859 63.8187 52.9781C63.8087 53.0467 63.8034 53.1157 63.8031 53.1849C63.8065 53.2588 63.799 53.3325 63.7811 53.4042C63.7768 53.4728 63.7664 53.5411 63.7498 53.6079C63.7498 53.8303 63.7028 54.034 63.6934 54.2345C63.6887 54.2956 63.6793 54.3564 63.6652 54.4162C63.6433 54.5447 63.6464 54.6731 63.6339 54.7985C63.6339 54.7985 63.6339 54.8235 63.6339 54.8329C63.6019 55.0676 63.5875 55.3041 63.59 55.541C63.59 55.6381 63.5712 55.7321 63.5681 55.8293C63.5681 55.9765 63.5681 56.1238 63.5681 56.271C63.5571 56.4452 63.5571 56.6201 63.5681 56.7943C63.5681 56.8287 63.5493 56.8601 63.5681 56.8945C63.5791 56.986 63.5791 57.0787 63.5681 57.1702C63.5681 57.2642 63.5681 57.3551 63.5493 57.4491C63.5305 57.5431 63.5493 57.5493 63.5493 57.5995C63.5524 57.6264 63.5524 57.654 63.5493 57.6809C63.5346 57.8351 63.5295 57.9899 63.5336 58.1446C63.5107 58.4467 63.4581 58.7459 63.377 59.0376C63.309 59.3453 63.2231 59.6485 63.1201 59.9462C63.001 60.2595 62.8757 60.5916 62.7597 60.9143C62.6438 61.237 62.5498 61.541 62.4464 61.8543C62.343 62.1676 62.3336 62.5373 62.2584 62.8757C62.2071 63.0818 62.1682 63.2911 62.1425 63.5023C62.1306 63.6796 62.0623 63.8485 61.9483 63.9848C61.8699 64.0725 61.8605 64.0381 61.7728 64.0036C61.6271 63.9356 61.4877 63.8548 61.3561 63.7623C61.0992 63.6119 60.8611 63.4052 60.5947 63.2673C60.4365 63.1752 60.2733 63.0915 60.106 63.0167C59.9468 62.9374 59.7695 62.9017 59.5921 62.9133C59.5921 62.9728 59.7175 63.0261 59.7739 63.0605C60.0154 63.1909 60.2416 63.3488 60.4475 63.5305C60.5133 63.5932 60.5258 63.6715 60.5791 63.7404C60.6117 63.7793 60.6511 63.8122 60.695 63.8375C60.8423 63.9441 60.9331 64.1289 61.0867 64.2167C61.2402 64.3044 61.2903 64.2824 61.3843 64.389C61.6161 64.6428 61.8135 64.9373 62.0109 65.213C62.0429 65.2421 62.0648 65.2803 62.0736 65.3226C62.0711 65.3286 62.0711 65.3355 62.0736 65.3414C62.1362 65.3759 62.1488 65.448 62.1895 65.4981C62.219 65.5351 62.2403 65.5777 62.2522 65.6234C62.2609 65.6532 62.276 65.6811 62.296 65.7049C62.4496 65.9493 62.5812 66.203 62.7127 66.46C62.8067 66.648 62.907 66.8328 63.001 67.0177C63.1429 67.2855 63.2686 67.5619 63.377 67.8448C63.4459 68.0297 63.5211 68.2145 63.5806 68.4025C63.6401 68.5905 63.6684 68.7158 63.7028 68.8881C63.7498 69.0981 63.7999 69.3048 63.8595 69.5148C63.8845 69.6056 63.8971 69.6965 63.9221 69.7874C63.9472 69.8782 63.9597 69.9847 63.9817 70.0819C64.0074 70.1752 64.0252 70.2705 64.0349 70.367C64.0318 70.393 64.0318 70.4193 64.0349 70.4453C64.0349 70.4672 64.0349 70.4923 64.0506 70.5142C64.0506 70.6051 64.0506 70.6991 64.0663 70.7931V70.8088C64.0663 70.8526 64.0976 70.8902 64.0882 70.9435C64.0838 70.9851 64.0904 71.0271 64.107 71.0657C64.107 71.1127 64.132 71.1565 64.1446 71.2004C64.1571 71.2411 64.1571 71.285 64.1446 71.3257C64.1352 71.3711 64.1352 71.4181 64.1446 71.4636C64.1446 71.5826 64.1446 71.7048 64.1634 71.8239C64.1634 71.8897 64.1634 71.9555 64.1634 72.0213C64.1634 72.2563 64.1634 72.4944 64.1634 72.7294C64.1634 72.861 64.179 72.9925 64.179 73.1241C64.1869 73.3337 64.1731 73.5437 64.1383 73.7508C64.1007 73.9372 64.0725 74.1255 64.0537 74.3147C64.0349 74.4714 64.0161 74.628 64.0099 74.7878C64.0008 74.8605 63.9873 74.9329 63.9691 75.004C63.9503 75.0917 63.9284 75.1763 63.9096 75.2641C63.8908 75.3518 63.8751 75.4395 63.8563 75.5272C63.8219 75.6996 63.7592 75.8625 63.7091 76.0285C63.6589 76.1946 63.6151 76.3419 63.5712 76.5204C63.5524 76.5925 63.5148 76.6583 63.4898 76.7272C63.4146 76.9184 63.3488 77.1126 63.2673 77.3037C63.1858 77.4949 63.1107 77.6421 63.0261 77.8082C62.9885 77.8802 62.954 77.9554 62.9195 78.0275C62.8694 78.1465 62.8036 78.2562 62.7472 78.369C62.6773 78.521 62.5999 78.6695 62.5154 78.8139C62.437 78.9486 62.3681 79.0865 62.2898 79.2212C62.271 79.2525 62.2584 79.2901 62.2396 79.3246C62.1977 79.4073 62.1485 79.486 62.0924 79.5596L61.9357 79.7883L61.7477 80.0421C61.7358 80.0581 61.722 80.0728 61.707 80.086C61.5785 80.1956 61.472 80.3241 61.3561 80.4431C61.2126 80.6029 61.0553 80.7495 60.8861 80.8818C60.8185 80.9347 60.7567 80.9946 60.7013 81.0604C60.6793 81.0854 60.6417 81.0604 60.6261 81.1011C60.6082 81.1268 60.586 81.149 60.5603 81.1669C60.5377 81.1885 60.5136 81.2082 60.4882 81.2264C60.4882 81.2264 60.46 81.2264 60.46 81.2452C60.46 81.264 60.4256 81.311 60.3754 81.311C60.3253 81.311 60.341 81.3298 60.3253 81.3392C60.2247 81.3934 60.1198 81.4395 60.012 81.4771L59.4136 81.7152L59.3133 81.7465C59.2099 81.781 59.1065 81.8217 59 81.853C58.8935 81.8844 58.8433 81.8969 58.7619 81.9188H58.7399C58.6215 81.9687 58.4952 81.9975 58.3671 82.0034C58.2941 82.0166 58.222 82.0332 58.1509 82.0536C58.1287 82.0611 58.1042 82.0611 58.082 82.0536C58.0732 82.0492 58.0632 82.0482 58.0538 82.051C58.0444 82.0542 58.0365 82.0605 58.0318 82.0692C58.0228 82.0827 58.009 82.0921 57.9933 82.0955C57.9776 82.099 57.961 82.0965 57.9473 82.088C57.8905 82.0677 57.8285 82.0677 57.7718 82.088C57.6556 82.119 57.5346 82.1297 57.4146 82.1194C57.3526 82.1184 57.2909 82.1237 57.2298 82.135C57.1264 82.135 57.023 82.157 56.9165 82.1632C56.8099 82.1695 56.7441 82.1789 56.6595 82.1883L56.2491 82.2259C56.2084 82.2259 56.1676 82.2509 56.1269 82.2259C56.0862 82.2008 56.1081 82.2259 56.105 82.2259C56.1018 82.2259 56.0204 82.2509 55.9734 82.2541C55.9311 82.2629 55.8872 82.2629 55.8449 82.2541C55.8305 82.2494 55.8155 82.2494 55.8011 82.2541C55.6989 82.2807 55.593 82.2901 55.4877 82.2823C55.4157 82.2823 55.3468 82.2823 55.2747 82.2823C55.1932 82.2885 55.1118 82.2885 55.0303 82.2823C54.9833 82.2791 54.9363 82.2791 54.8893 82.2823C54.8668 82.2885 54.8429 82.2885 54.8204 82.2823C54.7436 82.2722 54.6653 82.2798 54.5917 82.3042C54.5635 82.3042 54.5509 82.3042 54.5478 82.2697C54.5447 82.2353 54.5478 82.2478 54.5478 82.2478C54.5378 82.2444 54.5265 82.2444 54.5165 82.2478C54.5165 82.2823 54.4977 82.3011 54.4569 82.2917C54.4162 82.2823 54.3974 82.2917 54.3818 82.2541C54.3661 82.2165 54.3316 82.229 54.3097 82.2541C54.2878 82.2791 54.269 82.2979 54.2345 82.276C54.206 82.2522 54.1699 82.2394 54.1327 82.2394C54.0954 82.2394 54.0593 82.2522 54.0308 82.276C54.013 82.2876 53.9923 82.2936 53.9713 82.2936C53.9503 82.2936 53.9296 82.2876 53.9118 82.276C53.8742 82.2509 53.8303 82.276 53.7927 82.2603C53.7551 82.2447 53.7927 82.2823 53.7739 82.2886C53.7551 82.2948 53.7489 82.2886 53.7489 82.2886C53.7489 82.2886 53.7489 82.2447 53.705 82.2572C53.6611 82.2697 53.6392 82.2572 53.6235 82.2917C53.6079 82.3261 53.6079 82.2917 53.6047 82.2917C53.6016 82.2917 53.5828 82.2541 53.5483 82.2666C53.5233 82.2766 53.497 82.282 53.47 82.2823C53.47 82.3293 53.4293 82.3167 53.3979 82.3042C53.3838 82.2973 53.3682 82.2936 53.3525 82.2936C53.3368 82.2936 53.3212 82.2973 53.3071 82.3042C53.2993 82.3095 53.2899 82.3124 53.2805 82.3124C53.2711 82.3124 53.2617 82.3095 53.2538 82.3042C53.2378 82.2926 53.2187 82.2867 53.199 82.2867C53.1793 82.2867 53.1601 82.2926 53.1442 82.3042C53.1294 82.3161 53.1113 82.3227 53.0925 82.3227C53.0737 82.3227 53.0555 82.3161 53.0408 82.3042L52.9656 82.3387C52.9499 82.3387 52.9405 82.3387 52.9436 82.323C52.9468 82.3073 52.9436 82.2791 52.9217 82.3011C52.88 82.3286 52.8305 82.3418 52.7807 82.3387C52.7431 82.3387 52.7118 82.3387 52.6773 82.3387C52.6429 82.3387 52.5301 82.3387 52.4549 82.3387C52.385 82.3324 52.3148 82.3324 52.245 82.3387C52.2305 82.3434 52.2155 82.3434 52.2011 82.3387C52.1566 82.323 52.1077 82.323 52.0632 82.3387C52.0532 82.3446 52.0419 82.3481 52.0303 82.3481C52.0187 82.3481 52.0075 82.3446 51.9974 82.3387C51.9865 82.3343 51.9739 82.3343 51.963 82.3387C51.8922 82.3575 51.8176 82.3575 51.7468 82.3387C51.701 82.3324 51.6547 82.3324 51.6089 82.3387C51.5682 82.3528 51.5243 82.3528 51.4836 82.3387C51.4836 82.3387 51.4303 82.3606 51.4209 82.3543C51.4115 82.3481 51.3332 82.3543 51.2893 82.3543C51.2433 82.3418 51.1944 82.3418 51.1484 82.3543H51.1139C51.0428 82.3233 50.9635 82.3167 50.8883 82.3355C50.8413 82.3355 50.8037 82.3042 50.7505 82.3355C50.705 82.3449 50.658 82.3449 50.6126 82.3355C50.4622 82.3355 50.2993 82.3167 50.1583 82.3136H49.7478C49.61 82.3136 49.4753 82.3136 49.3374 82.3136H49.1902L48.6481 82.2917H48.2126H47.3259C47.0408 82.2917 46.7526 82.276 46.4675 82.2917C46.1228 82.2917 45.775 82.2917 45.4304 82.3105C45.3364 82.3105 45.2424 82.3105 45.1484 82.3105C45.0074 82.3183 44.8664 82.3183 44.7254 82.3105C44.5625 82.3293 44.4121 82.3105 44.2429 82.3105H43.6758H43.1683C42.855 82.3105 42.5573 82.3261 42.2503 82.3105C42.0215 82.3105 41.796 82.3105 41.5672 82.3105C41.3385 82.3105 41.1349 82.3105 40.9187 82.3105H40.4832H40.2701H39.7281L38.9636 82.2854H38.5876H38.1741C38.1158 82.2791 38.0569 82.2791 37.9986 82.2854C37.8106 82.3042 37.6226 82.2854 37.4315 82.3011C37.2404 82.3167 37.1182 82.3011 36.9741 82.2854H36.3756C36.2503 82.2854 36.125 82.2854 35.9997 82.2854C35.7838 82.2979 35.567 82.2979 35.3511 82.2854C35.2195 82.2854 35.0848 82.2854 34.9532 82.2854C34.712 82.2854 34.4738 82.2854 34.2326 82.2854C34.1417 82.2854 34.0477 82.2854 33.9506 82.2854C33.7955 82.2697 33.6389 82.2697 33.4838 82.2854C33.465 82.2885 33.4462 82.2885 33.4274 82.2854C33.2757 82.2666 33.1225 82.2603 32.9699 82.2666C32.8916 82.2666 32.8133 82.2666 32.735 82.2666C32.6566 82.2666 32.5501 82.2666 32.4561 82.2447C32.4511 82.2425 32.4458 82.2412 32.4404 82.2412C32.4351 82.2412 32.4298 82.2425 32.4248 82.2447C32.4113 82.2563 32.3941 82.2625 32.3762 82.2625C32.3583 82.2625 32.3411 82.2563 32.3276 82.2447C32.2462 82.2008 32.1679 82.2447 32.0895 82.2447C32.0212 82.2588 31.9504 82.2522 31.8859 82.2259C31.8592 82.2137 31.8304 82.2071 31.8013 82.2071C31.7721 82.2071 31.7433 82.2137 31.7167 82.2259C31.7054 82.2296 31.6935 82.2296 31.6822 82.2259C31.5914 82.2259 31.4974 82.2541 31.4065 82.2259C31.3758 82.218 31.3432 82.218 31.3125 82.2259C31.2356 82.2368 31.1575 82.2368 31.0807 82.2259C30.7955 82.2259 30.5073 82.2039 30.2222 82.2259C30.0749 82.2259 29.9308 82.2447 29.7867 82.2541H29.6457L28.9251 82.2384L28.6337 82.2227C28.4375 82.2118 28.2409 82.2118 28.0447 82.2227H27.8849L27.2363 82.1945C27.2003 82.1939 27.1645 82.1886 27.1298 82.1789C26.9646 82.1476 26.7964 82.135 26.6285 82.1413C26.5381 82.1394 26.4484 82.1247 26.3622 82.0974C26.1272 82.0222 25.8953 81.9408 25.6603 81.8593C25.6057 81.8386 25.5548 81.8089 25.5099 81.7716C25.379 81.6801 25.2627 81.5692 25.1653 81.4426C25.1226 81.3821 25.0917 81.3141 25.0744 81.2421C25.0525 81.1387 25.0337 81.0384 25.0118 80.9288C24.9904 80.8056 24.983 80.6806 24.9899 80.5559C24.9899 80.4243 24.9679 80.2959 24.9617 80.1643C24.9554 80.0327 24.9335 79.8917 24.9241 79.757C24.9241 79.5408 24.8833 79.3246 24.8614 79.1084C24.8614 79.0207 24.8614 78.9298 24.8614 78.8421C24.8614 78.6948 24.8614 78.5476 24.8614 78.4003C24.8298 78.0914 24.8706 77.779 24.9805 77.4886C25.0838 77.216 24.9805 76.8964 25.1684 76.6489C25.302 76.5013 25.456 76.3735 25.6259 76.2698C25.7606 76.1633 25.9141 76.0881 26.0551 75.991C26.1931 75.9126 26.3378 75.8465 26.4875 75.7936C26.8008 75.6557 27.1141 75.5022 27.4274 75.3424C27.9977 75.0573 28.5616 74.7314 29.1538 74.4996C29.7459 74.2677 30.407 74.0609 31.0337 73.8448C31.3188 73.7476 31.5914 73.6223 31.8733 73.5314C32.02 73.4888 32.1644 73.4387 32.3057 73.3811C32.4893 73.3008 32.6776 73.2319 32.8697 73.1743C33.183 73.074 33.512 72.9643 33.8315 72.861C34.2263 72.7168 34.6274 72.6134 35.0284 72.4881C35.4294 72.3628 35.7584 72.2281 36.1344 72.1309C36.4477 72.0526 36.7391 71.9555 37.0399 71.8615C37.1809 71.8276 37.3184 71.7807 37.4503 71.7205C37.4942 71.6986 37.5255 71.6735 37.5725 71.6547C37.8858 71.545 38.1991 71.5106 38.5124 71.4229C39.0263 71.2756 39.537 71.1095 40.0571 70.9936C40.2372 70.966 40.413 70.9156 40.5803 70.8432C40.715 70.7752 40.8585 70.7257 41.0064 70.696C41.4075 70.5894 41.8085 70.4829 42.2127 70.3826C42.3975 70.3573 42.5786 70.3087 42.7516 70.2385C42.8102 70.2059 42.8738 70.1828 42.9396 70.1696C43.4158 70.0725 43.8795 69.9659 44.3589 69.8563L45.0795 69.6683C45.1938 69.6229 45.311 69.5853 45.4304 69.5555C45.6842 69.5304 45.938 69.5054 46.1886 69.4552L46.9343 69.308C47.2664 69.2453 47.5985 69.167 47.9338 69.1294C48.269 69.0918 48.6544 68.9821 49.0178 68.932C49.4502 68.8693 49.8826 68.8161 50.3118 68.744C50.5719 68.7002 50.8256 68.6281 51.0857 68.5874C51.1672 68.5874 51.2455 68.5686 51.327 68.5529C51.4084 68.5372 51.4585 68.5529 51.5212 68.5529C51.5663 68.5369 51.6124 68.5244 51.6591 68.5153C51.8007 68.4987 51.9407 68.4724 52.0789 68.437C52.2559 68.3894 52.4273 68.322 52.5896 68.2365C52.9656 68.0516 53.3572 67.9043 53.7363 67.7226C54.3786 67.4093 55.0084 67.096 55.6695 66.8203C55.8261 66.7576 55.9828 66.6918 56.1363 66.6323C56.2898 66.5728 56.4308 66.554 56.5749 66.5007C56.7269 66.4396 56.8876 66.4023 57.0512 66.391C57.189 66.391 57.305 66.3472 57.4397 66.3378C57.6715 66.3221 57.9191 66.3378 58.1509 66.3378C58.3828 66.3378 58.6491 66.4318 58.8997 66.4631C59.213 66.5007 59.5264 66.532 59.8397 66.5665C60.0527 66.5916 60.2658 66.5665 60.4663 66.5665C60.272 66.5258 60.1154 66.4224 59.9462 66.3879ZM58.0131 37.5255C58.0109 37.5224 58.0096 37.5186 58.0096 37.5145C58.0096 37.5105 58.0109 37.5067 58.0131 37.5036C58.0171 37.5008 58.0221 37.4992 58.0271 37.4992C58.0322 37.4992 58.0372 37.5008 58.0412 37.5036C58.0412 37.5036 58.0412 37.5036 58.0412 37.5224C58.0412 37.5412 58.0287 37.5412 58.0131 37.5255ZM68.1707 76.9184C68.1707 76.9184 68.1707 76.9184 68.1707 76.8964V76.9184ZM76.5173 95.855H17.3011V89.7767H76.5173V95.855ZM71.1221 89.241H22.6964V83.2191H71.1221V89.241ZM77.0155 95.8738V89.2942H71.6046V83.2097H83.5105V95.8738H77.0155ZM78.6416 82.7147L80.4682 82.0692V81.1481H75.5084V81.7308H79.7695V81.7528L78.9925 82.016L77.0155 82.7147H71.6892V46.7839C71.6892 40.2285 69.0849 33.9415 64.4498 29.3061C59.8143 24.6708 53.5273 22.0666 46.9719 22.0666C40.4164 22.0666 34.1295 24.6708 29.4941 29.3061C24.8588 33.9415 22.2546 40.2285 22.2546 46.7839V82.7147H18.8426V82.4891C18.8426 81.3956 18.4479 80.8128 17.3795 80.8128H13.8735V81.4144H17.3199C18.0531 81.4144 18.3225 81.5899 18.3225 82.6238V82.7147H10.4521V46.997C10.4521 37.3081 14.301 28.0159 21.1522 21.1647C28.0033 14.3136 37.2955 10.4647 46.9844 10.4647C56.6733 10.4647 65.9656 14.3136 72.8168 21.1647C79.6677 28.0159 83.5167 37.3081 83.5167 46.997V82.7147H78.6416ZM93.4676 102.497H84.0118V83.2097H93.4676V102.497ZM86.5026 82.7147V46.997C86.5026 36.516 82.339 26.4645 74.9279 19.0534C67.5168 11.6423 57.4654 7.47878 46.9844 7.47878C36.5035 7.47878 26.452 11.6423 19.0408 19.0534C11.6298 26.4645 7.46625 36.516 7.46625 46.997V82.7147H0.498168V46.997C0.498168 21.3523 21.3523 0.498168 46.997 0.498168C72.6416 0.498168 93.4676 21.3523 93.4676 46.997V82.7147H86.5026Z" fill="#D1D8BF"/>
<path d="M15.5028 35.2823L18.5451 37.2248C18.7656 37.3702 18.9959 37.4999 19.2344 37.6134C18.9698 37.5745 18.7029 37.5535 18.4355 37.5507L14.8355 37.4285L14.6318 38.0896L17.6772 40.0196C17.8992 40.1634 18.1293 40.2941 18.3665 40.4112C18.1017 40.3743 17.8349 40.3523 17.5676 40.3454L13.9676 40.2358L13.7859 40.8373L18.8835 40.9501L19.0809 40.3235L16.0919 38.4029C15.8688 38.2566 15.6364 38.1247 15.3963 38.0081C15.6626 38.0511 15.9318 38.073 16.2015 38.0739L19.7482 38.1679L19.9456 37.5413L15.6658 34.7246L15.5028 35.2823Z" fill="#D1D8BF"/>
<path d="M20.7539 34.4894L19.2782 33.6779L20.3999 31.6351L19.9456 31.3845L18.8239 33.4273L17.3921 32.644L18.614 30.4196L18.1472 30.1658L16.6401 32.9072L20.9325 35.2664L22.4552 32.4936L21.9915 32.2398L20.7539 34.4894Z" fill="#D1D8BF"/>
<path d="M23.2102 30.5073L19.7387 27.8503L19.3752 28.3235L23.2697 31.3031L25.112 28.8968L24.689 28.5741L23.2102 30.5073Z" fill="#D1D8BF"/>
<path d="M27.0232 24.8552C27.1272 24.9768 27.2059 25.1178 27.2549 25.27C27.304 25.4223 27.3223 25.5828 27.3089 25.7422C27.2955 25.9015 27.2506 26.0567 27.1769 26.1986C27.1031 26.3406 27.0019 26.4664 26.8791 26.569C26.171 27.2426 25.2248 27.0672 24.3475 26.1492C23.4703 25.2311 23.3324 24.2881 24.0593 23.5925C24.271 23.3767 24.5555 23.2475 24.8573 23.2301C25.1591 23.2127 25.4566 23.3084 25.6917 23.4985L26.146 23.063C25.3125 22.3455 24.3256 22.6776 23.7241 23.251C22.8029 24.1314 22.7841 25.4442 23.8901 26.5972C25.0713 27.8504 26.2932 27.8097 27.2144 26.9293C28.0164 26.1648 28.0446 25.1653 27.4619 24.4447L27.0232 24.8552Z" fill="#D1D8BF"/>
<path d="M28.4519 19.513C27.4743 20.1396 27.0451 21.3646 28.0069 22.8341C28.9688 24.3035 30.2221 24.4163 31.2309 23.774C32.2398 23.1317 32.6471 21.8941 31.6884 20.4404C30.7296 18.9866 29.4513 18.8581 28.4519 19.513ZM30.9584 23.3573C30.1751 23.868 29.2602 23.6174 28.527 22.4957C27.7939 21.374 27.9349 20.409 28.7025 19.9077C29.4701 19.4064 30.4226 19.6477 31.1589 20.7725C31.8952 21.8973 31.7385 22.8497 30.9678 23.3573H30.9584Z" fill="#D1D8BF"/>
<path d="M35.915 15.8944L36.0309 19.6228C36.0309 20.0802 36.0654 20.2996 36.0654 20.2996C36.0654 20.2996 35.9275 20.1241 35.6267 19.7826L33.1798 16.9628L32.3401 17.2949L34.1416 21.8536L34.6774 21.6437L33.1296 17.7272H33.1484C33.1484 17.7272 33.327 17.9309 33.6748 18.3539L36.0591 21.111L36.5855 20.9042L36.4696 17.251C36.4696 16.6996 36.432 16.4364 36.432 16.4364H36.4508L37.9985 20.3528L38.5625 20.1304L36.7515 15.5623L35.915 15.8944Z" fill="#D1D8BF"/>
<path d="M40.5301 19.1434L40.2168 17.4891L42.5072 17.0536L42.41 16.5429L40.1197 16.9784L39.8158 15.3712L42.3066 14.9012L42.2095 14.3779L39.1296 14.9607L40.0414 19.7763L43.1526 19.1873L43.0523 18.6672L40.5301 19.1434Z" fill="#D1D8BF"/>
<path d="M46.4143 14.5597L48.1125 14.638L47.9088 19.0181L48.5041 19.0463L48.7078 14.6662L50.4028 14.7445L50.4278 14.2276L46.4394 14.0427L46.4143 14.5597Z" fill="#D1D8BF"/>
<path d="M54.0997 14.8103C52.9624 14.5596 51.7937 15.1048 51.4178 16.8186C51.0418 18.5324 51.8345 19.5068 53.0125 19.7669C54.1906 20.0269 55.3404 19.4724 55.7164 17.7617C56.0924 16.051 55.2652 15.0672 54.0997 14.8103ZM55.0992 17.6301C54.8172 18.9209 54.0151 19.4912 53.1159 19.2938C52.2167 19.0964 51.7405 18.263 52.0287 16.9565C52.317 15.6499 53.1034 15.0766 53.9995 15.2708C54.8955 15.4651 55.3906 16.3204 55.0992 17.6332V17.6301Z" fill="#D1D8BF"/>
<path d="M61.3717 17.3918L59.9054 20.4811C59.5921 21.1359 59.3227 21.3051 58.3953 20.8634L58.2762 20.807L58.0569 21.2644L58.3013 21.3803C59.2788 21.844 59.9681 21.7375 60.4193 20.7819L61.9106 17.6488L61.3717 17.3918Z" fill="#D1D8BF"/>
<path d="M66.5006 20.4062L64.934 22.7561C64.6865 23.1289 64.4045 23.5738 64.0348 23.696C63.8494 23.7471 63.6545 23.7536 63.4662 23.7149C63.2776 23.6763 63.1012 23.5935 62.9508 23.4736C62.7869 23.3776 62.6475 23.2451 62.5432 23.0865C62.4388 22.9278 62.3724 22.7472 62.3492 22.5587C62.3147 22.1733 62.5999 21.7316 62.8474 21.3556L64.4139 19.0088L63.9189 18.6768L62.108 21.3994C61.4218 22.4365 61.7664 23.2511 62.7001 23.8715C63.6338 24.4918 64.5236 24.4824 65.2066 23.4579L67.0144 20.7352L66.5006 20.4062Z" fill="#D1D8BF"/>
<path d="M71.122 24.4383L68.2614 27.4116C68.325 27.2425 68.3755 27.0686 68.4118 26.8915L69.3706 22.7526L68.8223 22.2231L65.4197 25.7322L65.8301 26.127L68.6844 23.1631C68.6236 23.3326 68.5754 23.5065 68.5403 23.6832L67.5815 27.8095L68.1298 28.339L71.5293 24.808L71.122 24.4383Z" fill="#D1D8BF"/>
<path d="M73.0026 26.5798L69.168 29.6356L69.5389 30.1011L73.3736 27.0454L73.0026 26.5798Z" fill="#D1D8BF"/>
<path d="M75.1106 32.3276C76.0067 31.7699 75.9973 30.9083 75.4991 30.1031L74.7221 28.8499L70.5613 31.4347L70.8746 31.9422L72.4631 30.9553L72.8986 31.6571C73.4312 32.5125 74.227 32.8759 75.1106 32.3276ZM74.6281 29.6112L75.073 30.3318C75.4396 30.9177 75.4051 31.4221 74.7847 31.8075C74.1644 32.1929 73.6819 32.008 73.3059 31.4065L72.8704 30.7047L74.6281 29.6112Z" fill="#D1D8BF"/>
<path d="M73.4875 35.5423L75.0415 34.8874L75.9501 37.0336L76.4263 36.8331L75.5177 34.6838L77.0216 34.0478L78.0117 36.3851L78.5005 36.1783L77.2817 33.2896L72.7668 35.2039L74.0013 38.1177L74.4901 37.9109L73.4875 35.5423Z" fill="#D1D8BF"/>
<path d="M77.0907 41.1976C77.2192 41.4874 77.4504 41.7193 77.7396 41.8487C78.0288 41.9784 78.3556 41.9963 78.6573 41.8994C78.8879 41.8593 79.1025 41.7544 79.2755 41.5968C79.4487 41.4392 79.5734 41.2355 79.6348 41.0096C79.7144 40.6897 79.7144 40.3551 79.6348 40.0352L79.2181 38.312L74.4338 39.4775L74.5748 40.0572L76.5926 39.5653L76.8495 40.6243L75.0699 42.1L75.2328 42.7705L77.0782 41.2039L77.0907 41.1976ZM78.8672 39.0044L79.1367 40.1261C79.2714 40.6744 79.0834 41.1475 78.51 41.2916C77.8552 41.4483 77.4886 41.0974 77.3508 40.5365L77.0845 39.4399L78.8672 39.0044Z" fill="#D1D8BF"/>
<path d="M88.7396 94.2728C88.8803 94.2735 89.0181 94.2321 89.1356 94.1544C89.2528 94.0767 89.3446 93.9658 89.3988 93.8358C89.4533 93.7061 89.4677 93.5629 89.4408 93.4247C89.4135 93.2865 89.3462 93.1593 89.2468 93.0597C89.1475 92.9601 89.0206 92.8918 88.8828 92.8642C88.7446 92.8366 88.6014 92.8504 88.4714 92.904C88.341 92.9579 88.2298 93.049 88.1515 93.1659C88.0732 93.2831 88.0315 93.4206 88.0315 93.5616C88.0315 93.7496 88.1061 93.9301 88.2386 94.0632C88.3714 94.1967 88.5516 94.2719 88.7396 94.2728Z" fill="#D1D8BF"/>
<path d="M5.22608 92.8502C5.08612 92.8534 4.95017 92.8975 4.83531 92.9778C4.72042 93.0576 4.63169 93.1698 4.58027 93.3002C4.52883 93.4302 4.51695 93.5727 4.54616 93.7097C4.57532 93.8466 4.64428 93.9719 4.74433 94.0697C4.8444 94.1677 4.97113 94.2338 5.10865 94.2598C5.24616 94.2862 5.38837 94.2711 5.51739 94.2169C5.64645 94.1627 5.75661 94.0715 5.83409 93.955C5.91157 93.8384 5.95293 93.7015 5.95296 93.5615C5.95299 93.4668 5.93407 93.3728 5.89735 93.2857C5.86066 93.1983 5.80686 93.1194 5.73913 93.053C5.67142 92.9868 5.59118 92.9345 5.50304 92.8997C5.41494 92.865 5.32079 92.8484 5.22608 92.8502Z" fill="#D1D8BF"/>
<path d="M61.7227 52.9499C61.7245 52.9427 61.7245 52.9352 61.7227 52.928C61.7227 52.928 61.7227 52.928 61.7227 52.9499C61.7227 52.9718 61.7227 52.9687 61.7227 52.9718C61.7227 52.975 61.7227 52.9687 61.7227 52.9499Z" fill="#D1D8BF"/>
<path d="M60.0559 56.2084C60.1603 56.1636 60.2577 56.1034 60.3442 56.0298C60.5764 55.8399 60.7737 55.6109 60.927 55.353C61.0209 55.1932 61.1181 55.0397 61.2058 54.8705C61.2913 54.7273 61.3578 54.5735 61.4032 54.4131C61.4185 54.3454 61.4405 54.2793 61.469 54.2157C61.5257 54.096 61.5627 53.9682 61.5786 53.8366C61.584 53.7598 61.5987 53.684 61.6225 53.611C61.6256 53.5881 61.6256 53.565 61.6225 53.5421C61.6375 53.455 61.6482 53.3673 61.6538 53.2789C61.6535 53.2404 61.661 53.2018 61.6758 53.1661L61.6946 53.0752C61.6946 53.0596 61.6946 53.0439 61.6789 53.0408C61.6632 53.0376 61.2528 53.9557 61.2121 54.0246C61.01 54.414 60.6954 54.7336 60.3097 54.9426C60.1706 54.9955 60.0356 55.0585 59.9056 55.1306C59.7959 55.1995 59.705 55.2935 59.5922 55.3656C59.4127 55.4762 59.21 55.5435 59.0001 55.563C58.5273 55.6178 58.0489 55.5429 57.6152 55.3468C57.3019 55.2058 57.0074 54.8329 56.6753 54.7953C56.7317 54.8392 56.7912 54.8768 56.8507 54.9144C56.9103 54.952 56.9823 55.0491 57.045 55.118C57.1262 55.2177 57.2198 55.306 57.3239 55.3812C57.3787 55.4182 57.4282 55.4627 57.4711 55.5128C57.6312 55.7049 57.8205 55.8709 58.0319 56.0047L58.0664 56.0361L58.1698 56.1081C58.3108 56.199 58.4643 56.2585 58.6084 56.3337C58.6864 56.3713 58.7701 56.3957 58.856 56.4058C58.9343 56.4058 59.0126 56.4214 59.0909 56.4277C59.1693 56.434 59.2789 56.4277 59.3729 56.4089C59.5051 56.3995 59.6355 56.3744 59.7614 56.3337C59.8636 56.3017 59.9623 56.2598 60.0559 56.2084Z" fill="#D1D8BF"/>
<path d="M16.6807 47.5892C17.0735 47.5892 17.3919 47.2705 17.3919 46.878C17.3919 46.4851 17.0735 46.1667 16.6807 46.1667C16.2879 46.1667 15.9695 46.4851 15.9695 46.878C15.9695 47.2705 16.2879 47.5892 16.6807 47.5892Z" fill="#D1D8BF"/>
<path d="M77.9493 47.5892C78.3421 47.5892 78.6605 47.2705 78.6605 46.878C78.6605 46.4851 78.3421 46.1667 77.9493 46.1667C77.5564 46.1667 77.238 46.4851 77.238 46.878C77.238 47.2705 77.5564 47.5892 77.9493 47.5892Z" fill="#D1D8BF"/>
<path d="M17.1727 75.1543H13.8735V75.7496H16.7184C17.1727 75.7496 17.7022 75.7496 18.0061 75.9814C18.2751 76.259 18.4254 76.6303 18.4254 77.0169C18.4254 77.4036 18.2751 77.7748 18.0061 78.0524C17.6928 78.3 17.1727 78.3062 16.7184 78.3062H13.8735V78.9078H17.1727C18.426 78.9078 18.9179 78.1621 18.9179 77.0279C18.9179 75.8937 18.4134 75.1543 17.1727 75.1543Z" fill="#D1D8BF"/>
<path d="M17.5454 70.2699L13.864 72.463V73.2338H18.8206V72.6573H14.6692C14.8327 72.5805 14.9917 72.495 15.1455 72.4004L18.8206 70.2072V69.4302H13.8734V69.9973H18.0373V70.0192C17.8669 70.0894 17.7024 70.173 17.5454 70.2699Z" fill="#D1D8BF"/>
<path d="M18.8239 66.8484H13.8735V67.4499H18.8239V66.8484Z" fill="#D1D8BF"/>
<path d="M13.8736 64.8558H18.8208V64.2542H16.919V63.4177C16.919 62.4025 16.4271 61.6663 15.3807 61.6663C14.3342 61.6663 13.8611 62.4088 13.8611 63.3675L13.8736 64.8558ZM14.3561 63.3989C14.3561 62.7002 14.6694 62.2866 15.3932 62.2866C16.1169 62.2866 16.4459 62.7002 16.4459 63.4177V64.2542H14.3561V63.3989Z" fill="#D1D8BF"/>
<path d="M13.8735 60.0684H18.8207V56.8726H18.285V59.4668H16.5837V57.1107H16.0605V59.4668H14.4093V56.9039H13.8735V60.0684Z" fill="#D1D8BF"/>
<path d="M14.0991 52.2919C13.9514 52.5829 13.8761 52.9053 13.8798 53.2318V55.024H18.8207V54.4224H16.7246V53.3227L18.8207 52.3232V51.6245L16.6275 52.718C16.5705 52.4043 16.4 52.1227 16.1487 51.9269C15.8973 51.731 15.5826 51.6345 15.2646 51.6558C15.0303 51.6421 14.7968 51.6944 14.5907 51.8065C14.3846 51.919 14.2143 52.0873 14.0991 52.2919ZM16.2327 53.3007V54.4381H14.3654V53.2631C14.3654 52.6929 14.663 52.2731 15.2709 52.2731C15.9476 52.2856 16.2265 52.718 16.2265 53.3007H16.2327Z" fill="#D1D8BF"/>
<path d="M76.9622 53.7082L80.4682 52.737V52.1104L75.5085 53.5391V54.2033L78.9549 55.1589C79.214 55.235 79.4778 55.2936 79.7445 55.3343C79.4753 55.3735 79.2093 55.4324 78.9486 55.5098L75.5022 56.4811V57.1547L80.4525 58.5709V57.9818L76.956 57.0231C76.6994 56.9492 76.4374 56.8937 76.1727 56.857C76.4393 56.8129 76.7031 56.7521 76.9622 56.6753L80.4682 55.7166V55.0179L76.956 54.078C76.6981 54.0078 76.4368 53.9523 76.1727 53.9119C76.4396 53.8593 76.7031 53.7913 76.9622 53.7082Z" fill="#D1D8BF"/>
<path d="M80.4682 60.1436H75.5178V63.3425H76.0567V60.7482H77.758V63.1012H78.2812V60.7482H79.9324V63.308H80.4682V60.1436Z" fill="#D1D8BF"/>
<path d="M77.9836 69.3267C76.2572 69.3267 75.4207 70.2384 75.4207 71.5199C75.4207 72.6384 76.135 73.3559 77.0655 73.4342V72.8076C76.9042 72.7988 76.746 72.7581 76.6006 72.6876C76.4549 72.6174 76.3249 72.519 76.2177 72.3981C76.1103 72.2771 76.0282 72.1361 75.9758 71.9832C75.9235 71.8303 75.9019 71.6684 75.9126 71.5073C75.9126 70.5172 76.7021 69.9408 77.9836 69.9408C79.265 69.9408 80.0546 70.4984 80.0546 71.5073C80.0627 71.8103 79.959 72.1054 79.7632 72.337C79.567 72.5682 79.2926 72.7189 78.9924 72.7606V73.3872C80.0984 73.2775 80.559 72.3251 80.559 71.4854C80.5465 70.2509 79.5814 69.3267 77.9836 69.3267Z" fill="#D1D8BF"/>
<path d="M75.5178 68.2334H76.0567V65.7739H80.4682V65.1724H75.5178V68.2334Z" fill="#D1D8BF"/>
<path d="M77.9775 74.9475C76.2104 74.9475 75.4146 75.9438 75.4146 77.1595C75.4146 78.3752 76.2104 79.3934 77.9775 79.3934C79.7445 79.3934 80.5404 78.3626 80.5404 77.1595C80.5404 75.9564 79.7508 74.9475 77.9775 74.9475ZM77.9775 78.7574C76.6459 78.7574 75.9065 78.0932 75.9065 77.1595C75.9065 76.2258 76.6239 75.5929 77.9775 75.5929C79.331 75.5929 80.0673 76.2478 80.0673 77.1595C80.0673 78.0712 79.331 78.7574 77.9712 78.7574H77.9775Z" fill="#D1D8BF"/>
</g>
</svg>
