<svg width="239" height="26" viewBox="0 0 239 26" fill="none" xmlns="http://www.w3.org/2000/svg">
<g clip-path="url(#clip0_1_1999)">
<mask id="mask0_1_1999" style="mask-type:luminance" maskUnits="userSpaceOnUse" x="0" y="1" width="99" height="25">
<path d="M98.6653 1.67139H0.939941V25.6714H98.6653V1.67139Z" fill="white"/>
</mask>
<g mask="url(#mask0_1_1999)">
<path d="M26.6222 10.1775H36.5172V12.0237H32.6265V22.4018H30.487V12.0237H26.6135V10.1775H26.6222ZM36.0945 13.5506H37.9234V15.2588H37.9579C38.0183 15.0172 38.1304 14.7843 38.2944 14.56C38.4583 14.3357 38.6567 14.12 38.8896 13.9389C39.1225 13.7491 39.3813 13.6024 39.666 13.4816C39.9507 13.3695 40.244 13.3091 40.5373 13.3091C40.7616 13.3091 40.9256 13.3177 41.0118 13.3263C41.0981 13.335 41.1844 13.3522 41.2793 13.3609V15.2415C41.1412 15.2156 41.0032 15.1984 40.8565 15.1811C40.7099 15.1639 40.5718 15.1552 40.4338 15.1552C40.106 15.1552 39.7954 15.2243 39.5021 15.3537C39.2088 15.4831 38.9586 15.6815 38.7429 15.9317C38.5273 16.1905 38.3547 16.501 38.2253 16.8806C38.0959 17.2602 38.0355 17.6916 38.0355 18.1833V22.3932H36.0859V13.5506H36.0945ZM50.2426 22.4018H48.3274V21.1682H48.2929C48.0514 21.6168 47.6977 21.9705 47.2232 22.2379C46.7487 22.5054 46.2656 22.6434 45.7739 22.6434C44.6092 22.6434 43.7638 22.3587 43.2462 21.7807C42.7286 21.2027 42.4698 20.3314 42.4698 19.1668V13.5506H44.4194V18.977C44.4194 19.7534 44.5661 20.3055 44.868 20.6247C45.1614 20.9439 45.5841 21.1078 46.1189 21.1078C46.533 21.1078 46.8695 21.0474 47.1455 20.918C47.4216 20.7886 47.6459 20.6247 47.8098 20.409C47.9823 20.202 48.1031 19.9432 48.1808 19.6499C48.2584 19.3565 48.2929 19.0373 48.2929 18.6923V13.5593H50.2426V22.4018ZM53.5639 19.5636C53.6243 20.133 53.84 20.5298 54.211 20.7627C54.5905 20.987 55.0391 21.1078 55.5654 21.1078C55.7465 21.1078 55.9536 21.0905 56.1865 21.0647C56.4194 21.0388 56.6437 20.9784 56.8422 20.9008C57.0492 20.8231 57.2131 20.7023 57.3511 20.5471C57.4805 20.3918 57.5409 20.1934 57.5323 19.9432C57.5237 19.693 57.4288 19.4859 57.2562 19.3307C57.0837 19.1668 56.868 19.046 56.6006 18.9425C56.3332 18.8476 56.0312 18.7613 55.6862 18.6923C55.3411 18.6233 54.996 18.5456 54.6423 18.468C54.28 18.3903 53.9263 18.2868 53.5898 18.1747C53.2534 18.0625 52.9514 17.9072 52.684 17.7088C52.4166 17.519 52.2009 17.2688 52.0456 16.9669C51.8817 16.665 51.8041 16.294 51.8041 15.8454C51.8041 15.3623 51.9248 14.9655 52.1578 14.6376C52.3907 14.3098 52.6926 14.051 53.0463 13.8526C53.4087 13.6542 53.8055 13.5161 54.2455 13.4299C54.6854 13.3522 55.1082 13.3091 55.505 13.3091C55.9622 13.3091 56.4022 13.3609 56.8163 13.4558C57.2304 13.5506 57.6099 13.7059 57.9464 13.9302C58.2828 14.1459 58.5589 14.4306 58.7832 14.7757C59.0075 15.1207 59.1455 15.5435 59.2059 16.0352H57.17C57.0751 15.5693 56.868 15.2501 56.5316 15.0949C56.1951 14.9309 55.8069 14.8533 55.3756 14.8533C55.2376 14.8533 55.0736 14.8619 54.8839 14.8878C54.6941 14.9137 54.5215 14.9568 54.349 15.0172C54.1851 15.0776 54.047 15.1725 53.9263 15.2933C53.8141 15.4141 53.7537 15.5693 53.7537 15.7678C53.7537 16.0093 53.84 16.1991 54.0039 16.3458C54.1678 16.4924 54.3835 16.6132 54.6509 16.7167C54.9184 16.8116 55.2203 16.8979 55.5654 16.9669C55.9105 17.0359 56.2642 17.1136 56.6265 17.1912C56.9802 17.2688 57.3253 17.3724 57.6703 17.4845C58.0154 17.5967 58.3174 17.7519 58.5848 17.9504C58.8522 18.1488 59.0679 18.3903 59.2318 18.6836C59.3957 18.977 59.482 19.3479 59.482 19.7793C59.482 20.3055 59.3612 20.7455 59.1197 21.1164C58.8781 21.4788 58.5675 21.7807 58.1879 22.005C57.8084 22.2293 57.377 22.4018 56.9112 22.5054C56.4453 22.6089 55.9795 22.6606 55.5222 22.6606C54.9615 22.6606 54.4439 22.6003 53.9694 22.4708C53.4949 22.3414 53.0808 22.1517 52.7358 21.9015C52.3907 21.6427 52.1146 21.3235 51.9162 20.9439C51.7178 20.5643 51.6143 20.1071 51.597 19.5808H53.5639V19.5636ZM59.9996 13.5506H61.4748V10.8935H63.4245V13.5506H65.1844V15.0086H63.4245V19.7361C63.4245 19.9432 63.4331 20.1157 63.4504 20.271C63.4676 20.4177 63.5107 20.5471 63.5711 20.6506C63.6315 20.7541 63.7264 20.8317 63.8558 20.8835C63.9852 20.9353 64.1491 20.9611 64.3734 20.9611C64.5115 20.9611 64.6495 20.9611 64.7875 20.9525C64.9255 20.9439 65.0636 20.9266 65.2016 20.8921V22.4018C64.9859 22.4277 64.7703 22.445 64.5718 22.4708C64.3648 22.4967 64.1578 22.5054 63.9421 22.5054C63.4245 22.5054 63.0104 22.4536 62.6998 22.3587C62.3892 22.2638 62.1391 22.1171 61.9665 21.9274C61.7854 21.7376 61.6732 21.5046 61.6042 21.22C61.5438 20.9353 61.5007 20.6074 61.4921 20.2451V15.0258H60.0169V13.5506H59.9996ZM66.5647 13.5506H68.4108V14.7498H68.4453C68.7214 14.2322 69.101 13.8698 69.5927 13.6455C70.0844 13.4212 70.6107 13.3091 71.1887 13.3091C71.8874 13.3091 72.4913 13.4299 73.0089 13.68C73.5266 13.9216 73.9579 14.2581 74.303 14.6894C74.6481 15.1207 74.8982 15.6211 75.0708 16.1905C75.2433 16.7598 75.3296 17.3724 75.3296 18.0194C75.3296 18.6146 75.2519 19.1926 75.0966 19.7448C74.9414 20.3055 74.7084 20.7972 74.3979 21.2286C74.0873 21.6599 73.6905 21.9964 73.2074 22.2552C72.7243 22.514 72.1635 22.6434 71.5079 22.6434C71.2232 22.6434 70.9385 22.6175 70.6538 22.5657C70.3691 22.514 70.0931 22.4277 69.8342 22.3156C69.5754 22.2034 69.3253 22.0568 69.1096 21.8756C68.8853 21.6944 68.7041 21.4874 68.5488 21.2545H68.5143V25.6714H66.5647V13.5506ZM73.3799 17.9849C73.3799 17.588 73.3281 17.1998 73.2246 16.8202C73.1211 16.4407 72.9658 16.1128 72.7588 15.8195C72.5517 15.5262 72.2929 15.2933 71.991 15.1207C71.6804 14.9482 71.3267 14.8533 70.9299 14.8533C70.1103 14.8533 69.4892 15.138 69.0751 15.7074C68.661 16.2767 68.4539 17.0359 68.4539 17.9849C68.4539 18.4335 68.5057 18.8476 68.6179 19.2271C68.73 19.6067 68.8853 19.9345 69.1096 20.2106C69.3253 20.4867 69.5841 20.7023 69.886 20.8576C70.188 21.0215 70.5417 21.0992 70.9385 21.0992C71.3871 21.0992 71.758 21.0043 72.0686 20.8231C72.3792 20.6419 72.6294 20.4004 72.8278 20.1157C73.0262 19.8224 73.1729 19.4946 73.2591 19.1236C73.3368 18.7527 73.3799 18.3731 73.3799 17.9849ZM76.822 10.1775H78.7717V12.0237H76.822V10.1775ZM76.822 13.5506H78.7717V22.4018H76.822V13.5506ZM80.5143 10.1775H82.464V22.4018H80.5143V10.1775ZM88.4424 22.6434C87.735 22.6434 87.1053 22.5226 86.5532 22.2897C86.001 22.0568 85.5352 21.7289 85.147 21.3235C84.7674 20.9094 84.4741 20.4176 84.2757 19.8483C84.0772 19.2789 83.9737 18.6491 83.9737 17.9676C83.9737 17.2947 84.0772 16.6736 84.2757 16.1042C84.4741 15.5348 84.7674 15.0431 85.147 14.629C85.5266 14.2149 86.001 13.8957 86.5532 13.6628C87.1053 13.4299 87.735 13.3091 88.4424 13.3091C89.1498 13.3091 89.7796 13.4299 90.3317 13.6628C90.8839 13.8957 91.3497 14.2235 91.7379 14.629C92.1175 15.0431 92.4108 15.5348 92.6092 16.1042C92.8077 16.6736 92.9112 17.2947 92.9112 17.9676C92.9112 18.6491 92.8077 19.2789 92.6092 19.8483C92.4108 20.4176 92.1175 20.9094 91.7379 21.3235C91.3583 21.7376 90.8839 22.0568 90.3317 22.2897C89.7796 22.5226 89.1498 22.6434 88.4424 22.6434ZM88.4424 21.0992C88.8738 21.0992 89.2534 21.0043 89.5726 20.8231C89.8918 20.6419 90.1506 20.4004 90.3576 20.1071C90.5647 19.8138 90.7113 19.4773 90.8148 19.1064C90.9097 18.7354 90.9615 18.3558 90.9615 17.9676C90.9615 17.588 90.9097 17.2171 90.8148 16.8375C90.72 16.4579 90.5647 16.1301 90.3576 15.8368C90.1506 15.5435 89.8918 15.3105 89.5726 15.1294C89.2534 14.9482 88.8738 14.8533 88.4424 14.8533C88.0111 14.8533 87.6315 14.9482 87.3123 15.1294C86.9931 15.3105 86.7343 15.5521 86.5273 15.8368C86.3202 16.1301 86.1736 16.4579 86.07 16.8375C85.9752 17.2171 85.9234 17.588 85.9234 17.9676C85.9234 18.3558 85.9752 18.7354 86.07 19.1064C86.1649 19.4773 86.3202 19.8138 86.5273 20.1071C86.7343 20.4004 86.9931 20.6419 87.3123 20.8231C87.6315 21.0129 88.0111 21.0992 88.4424 21.0992ZM93.4805 13.5506H94.9558V10.8935H96.9054V13.5506H98.6653V15.0086H96.9054V19.7361C96.9054 19.9432 96.914 20.1157 96.9313 20.271C96.9486 20.4177 96.9917 20.5471 97.0521 20.6506C97.1125 20.7541 97.2074 20.8317 97.3368 20.8835C97.4662 20.9353 97.6301 20.9611 97.8544 20.9611C97.9924 20.9611 98.1304 20.9611 98.2685 20.9525C98.4065 20.9439 98.5445 20.9266 98.6826 20.8921V22.4018C98.4669 22.4277 98.2512 22.445 98.0528 22.4708C97.8458 22.4967 97.6387 22.5054 97.423 22.5054C96.9054 22.5054 96.4913 22.4536 96.1808 22.3587C95.8702 22.2638 95.62 22.1171 95.4475 21.9274C95.2663 21.7376 95.1542 21.5046 95.0852 21.22C95.0248 20.9353 94.9816 20.6074 94.973 20.2451V15.0258H93.4978V13.5506H93.4805Z" fill="black"/>
<path d="M24.3446 10.1775H15.4072L12.6466 1.67139L9.87739 10.1775L0.939941 10.1689L8.1779 15.4312L5.40867 23.9287L12.6466 18.6749L19.8759 23.9287L17.1153 15.4312L24.3446 10.1775Z" fill="#00B67A"/>
<path d="M17.7365 17.3551L17.1154 15.4313L12.6467 18.6751L17.7365 17.3551Z" fill="#005128"/>
</g>
<path d="M142.665 3.37183H122.665V23.9711H142.665V3.37183Z" fill="#21AD79"/>
<path d="M132.675 16.7896L135.741 15.9948L136.992 20.0545L132.675 16.7896ZM139.662 11.57H134.302L132.675 6.37183L131.028 11.5485H125.668L129.985 14.749L128.338 19.9257L132.675 16.7466L135.345 14.7705L139.662 11.57Z" fill="white"/>
<path d="M166.665 3.33118H146.665V24.0117H166.665V3.33118Z" fill="#21AD79"/>
<path d="M156.655 17.7685L159.721 16.9706L160.972 21.0463L156.655 17.7685ZM163.662 12.5283H158.303L156.655 7.33118L155.008 12.5283H149.648L153.965 15.7414L152.317 20.9385L156.634 17.7254L159.304 15.7414L163.662 12.5283Z" fill="white"/>
<path d="M190.665 3.33118H170.665V24.0117H190.665V3.33118Z" fill="#21AD79"/>
<path d="M180.675 16.7685L183.741 15.9706L184.992 20.0463L180.675 16.7685ZM187.661 11.5283H182.302L180.654 6.33118L179.007 11.5283H173.647L177.964 14.7414L176.316 19.9385L180.633 16.7254L183.303 14.7414L187.661 11.5283Z" fill="white"/>
<path d="M214.665 3.33118H194.665V24.0117H214.665V3.33118Z" fill="#21AD79"/>
<path d="M204.655 16.7685L207.72 15.9706L208.972 20.0463L204.655 16.7685ZM211.662 11.5283H206.302L204.655 6.33118L203.007 11.5283H197.668L201.985 14.7414L200.338 19.9385L204.655 16.7254L207.324 14.7414L211.662 11.5283Z" fill="white"/>
<mask id="mask1_1_1999" style="mask-type:alpha" maskUnits="userSpaceOnUse" x="218" y="3" width="21" height="21">
<path d="M238.665 3.37183H218.665V23.9711H238.665V3.37183Z" fill="#DBDBDB"/>
</mask>
<g mask="url(#mask1_1_1999)">
<path d="M238.665 3.33118H220.665V24.3312H238.665V3.33118Z" fill="#D9D9D9"/>
<path d="M228.94 3.74658H218.94V24.7466H228.94V3.74658Z" fill="#21AD79"/>
<path d="M228.652 16.7275L231.717 15.9327L232.969 19.9924L228.652 16.7275ZM235.659 11.5078H230.299L228.652 6.33118L227.004 11.5078H221.665L225.982 14.7083L224.335 19.885L228.652 16.6845L231.321 14.7083L235.659 11.5078Z" fill="white"/>
</g>
</g>
<defs>
<clipPath id="clip0_1_1999">
<rect width="238" height="25" fill="white" transform="translate(0.939941 0.899902)"/>
</clipPath>
</defs>
</svg>
