<svg width="19" height="19" viewBox="0 0 19 19" fill="none" xmlns="http://www.w3.org/2000/svg">
<rect x="1" y="0.789917" width="17" height="17" rx="8.5" fill="#DFF49F"/>
<rect x="1" y="0.789917" width="17" height="17" rx="8.5" stroke="#829473"/>
<path d="M7.76764 12.7899V12.2146L9.92816 9.84958C10.1817 9.57259 10.3905 9.33182 10.5546 9.12727C10.7186 8.9206 10.8401 8.72671 10.9189 8.5456C10.9999 8.36236 11.0404 8.1706 11.0404 7.97031C11.0404 7.7402 10.985 7.54098 10.8742 7.37266C10.7655 7.20433 10.6164 7.07436 10.4267 6.98274C10.2371 6.89112 10.024 6.84531 9.78753 6.84531C9.53611 6.84531 9.31665 6.89752 9.12915 7.00192C8.94378 7.10419 8.79996 7.24801 8.69769 7.43338C8.59755 7.61875 8.54747 7.83608 8.54747 8.08537H7.79321C7.79321 7.70185 7.88164 7.3652 8.05848 7.07543C8.23533 6.78566 8.4761 6.5598 8.78078 6.39787C9.0876 6.23594 9.43171 6.15497 9.8131 6.15497C10.1966 6.15497 10.5365 6.23594 10.8326 6.39787C11.1288 6.5598 11.361 6.7782 11.5294 7.05306C11.6977 7.32791 11.7818 7.63367 11.7818 7.97031C11.7818 8.21108 11.7382 8.44652 11.6508 8.67664C11.5656 8.90462 11.4164 9.15924 11.2034 9.44049C10.9924 9.7196 10.6995 10.0605 10.3245 10.4632L8.85429 12.0357V12.0868H11.8969V12.7899H7.76764Z" fill="#133F26"/>
</svg>
