<svg width="19" height="19" viewBox="0 0 19 19" fill="none" xmlns="http://www.w3.org/2000/svg">
<rect x="1" y="0.789917" width="17" height="17" rx="8.5" fill="#DFF49F"/>
<rect x="1" y="0.789917" width="17" height="17" rx="8.5" stroke="#829473"/>
<path d="M9.97929 12.8794C9.55742 12.8794 9.18135 12.807 8.8511 12.6621C8.52297 12.5172 8.26196 12.3158 8.06807 12.058C7.87631 11.7981 7.77191 11.4966 7.75486 11.1536H8.56026C8.5773 11.3645 8.64975 11.5467 8.77759 11.7001C8.90543 11.8514 9.07269 11.9685 9.27936 12.0516C9.48604 12.1347 9.71509 12.1763 9.96651 12.1763C10.2478 12.1763 10.497 12.1273 10.7144 12.0293C10.9317 11.9313 11.1022 11.7949 11.2257 11.6202C11.3493 11.4455 11.4111 11.243 11.4111 11.0129C11.4111 10.7722 11.3515 10.5602 11.2321 10.3769C11.1128 10.1916 10.9381 10.0467 10.708 9.94226C10.4779 9.83786 10.1966 9.78566 9.86424 9.78566H9.34009V9.08253H9.86424C10.1242 9.08253 10.3522 9.03566 10.5482 8.94191C10.7463 8.84816 10.9008 8.71605 11.0116 8.5456C11.1245 8.37514 11.181 8.17486 11.181 7.94475C11.181 7.72316 11.132 7.53033 11.034 7.36627C10.936 7.2022 10.7975 7.07436 10.6185 6.98274C10.4417 6.89112 10.2328 6.84531 9.99208 6.84531C9.76622 6.84531 9.55316 6.88686 9.35287 6.96996C9.15472 7.05093 8.99279 7.16918 8.86708 7.32472C8.74137 7.47813 8.67318 7.6635 8.66253 7.88083H7.89549C7.90827 7.53779 8.01161 7.23736 8.2055 6.97955C8.39939 6.7196 8.65294 6.51719 8.96615 6.3723C9.28149 6.22742 9.62773 6.15497 10.0049 6.15497C10.4097 6.15497 10.757 6.237 11.0468 6.40107C11.3365 6.563 11.5592 6.77713 11.7147 7.04347C11.8703 7.3098 11.948 7.59745 11.948 7.90639C11.948 8.275 11.8511 8.58928 11.6572 8.84922C11.4654 9.10916 11.2044 9.28921 10.8742 9.38935V9.44049C11.2875 9.50867 11.6103 9.68445 11.8426 9.96783C12.0748 10.2491 12.1909 10.5974 12.1909 11.0129C12.1909 11.3688 12.094 11.6884 11.9001 11.9717C11.7083 12.253 11.4463 12.4746 11.1139 12.6365C10.7815 12.7984 10.4033 12.8794 9.97929 12.8794Z" fill="#133F26"/>
</svg>
