<svg width="14" height="15" viewBox="0 0 14 15" fill="none" xmlns="http://www.w3.org/2000/svg">
<g clip-path="url(#clip0_1_2363)">
<mask id="mask0_1_2363" style="mask-type:luminance" maskUnits="userSpaceOnUse" x="0" y="1" width="14" height="14">
<path d="M13.5883 1.19397H0.411865V14.3704H13.5883V1.19397Z" fill="white"/>
</mask>
<g mask="url(#mask0_1_2363)">
<path fill-rule="evenodd" clip-rule="evenodd" d="M6.31498 1.22468C5.17414 1.33212 3.99142 1.80217 3.00268 2.54108C2.67037 2.78946 2.00746 3.45237 1.75909 3.78468C0.8687 4.97612 0.412109 6.33116 0.412109 7.78216C0.412109 9.23312 0.8687 10.5882 1.75909 11.7796C2.00746 12.1119 2.67037 12.7749 3.00268 13.0232C3.93226 13.7179 4.94386 14.1423 6.06186 14.3065C6.45895 14.3648 7.16555 14.3832 7.58001 14.3461C8.82377 14.2346 9.97078 13.7906 10.9976 13.0232C11.3299 12.7749 11.9929 12.1119 12.2412 11.7796C12.9691 10.8056 13.4273 9.67157 13.5369 8.57275C13.5535 8.40606 13.5778 8.24911 13.5909 8.22394C13.6245 8.15933 13.6221 7.30014 13.5884 7.32098C13.5724 7.33086 13.562 7.29268 13.5619 7.22371C13.5617 7.08828 13.5004 6.66092 13.4416 6.38545C13.2459 5.46773 12.8371 4.58196 12.2412 3.78468C11.9929 3.45237 11.3299 2.78946 10.9976 2.54108C9.62531 1.51551 8.01965 1.06411 6.31498 1.22468ZM6.39404 2.17162C4.31991 2.40405 2.55864 3.73443 1.77198 5.66288C0.767321 8.12582 1.64287 10.9794 3.86084 12.4707C5.84013 13.8016 8.45833 13.7298 10.3936 12.2914C10.6895 12.0715 11.2895 11.4715 11.5094 11.1756C13.1638 8.94954 12.9853 5.88367 11.0857 3.89868C10.1318 2.90191 8.94664 2.31853 7.57437 2.17027C7.2804 2.13852 6.68335 2.1392 6.39404 2.17162ZM6.6444 4.04006C5.96783 4.16211 5.3941 4.60349 5.09115 5.23507C4.95072 5.52779 4.8919 5.77965 4.89203 6.08759C4.89214 6.35154 4.93477 6.4535 5.08275 6.5437C5.20241 6.61667 5.50287 6.61725 5.62179 6.54473C5.7574 6.46203 5.79623 6.37583 5.83217 6.07752C5.8891 5.60527 6.09478 5.28522 6.45621 5.1066C6.93989 4.86755 7.44879 4.9425 7.82211 5.30777C8.34783 5.82221 8.26521 6.69847 7.65271 7.10423C7.46695 7.2273 7.29747 7.28161 7.01518 7.30852C6.7667 7.33221 6.69629 7.36455 6.59332 7.50237C6.54204 7.57096 6.53856 7.61545 6.53134 8.29132C6.52386 8.9934 6.52488 9.00992 6.58405 9.12556C6.66732 9.28838 6.77434 9.34471 7.00016 9.34471C7.20026 9.34471 7.31147 9.29694 7.40586 9.17036C7.45575 9.10358 7.46265 9.05058 7.47451 8.64438L7.48769 8.19266L7.56675 8.1754C7.61023 8.16588 7.70766 8.13315 7.78321 8.10267C8.70246 7.73167 9.23883 6.79008 9.09232 5.80445C8.9706 4.98569 8.35409 4.30093 7.5404 4.08071C7.35321 4.03005 6.83116 4.00637 6.6444 4.04006ZM0.422756 7.78216C0.422756 8.0358 0.426709 8.13959 0.431558 8.01275C0.43638 7.88591 0.43638 7.67838 0.431558 7.55157C0.426709 7.42476 0.422756 7.52851 0.422756 7.78216ZM6.78151 10.0849C6.53817 10.1756 6.34347 10.3725 6.28562 10.5862C6.23983 10.7554 6.2695 11.0259 6.3485 11.1599C6.59883 11.5845 7.12832 11.677 7.4894 11.3591C7.66098 11.2081 7.73752 11.0355 7.73752 10.7996C7.73752 10.497 7.596 10.2678 7.32214 10.1268C7.17973 10.0534 6.91987 10.0333 6.78151 10.0849Z" fill="#133F26"/>
</g>
</g>
<defs>
<clipPath id="clip0_1_2363">
<rect width="13.1765" height="14" fill="white" transform="translate(0.411865 0.849731)"/>
</clipPath>
</defs>
</svg>
