<svg width="25" height="25" viewBox="0 0 25 25" fill="none" xmlns="http://www.w3.org/2000/svg">
<g clip-path="url(#clip0_1_1814)">
<mask id="mask0_1_1814" style="mask-type:luminance" maskUnits="userSpaceOnUse" x="0" y="1" width="24" height="24">
<path d="M23.83 1.21216H0.790039V24.2522H23.83V1.21216Z" fill="white"/>
</mask>
<g mask="url(#mask0_1_1814)">
<path fill-rule="evenodd" clip-rule="evenodd" d="M3.51332 4.73122C5.8832 2.46918 9.0344 1.20865 12.3105 1.21217C14.5888 1.21226 16.8159 1.8879 18.7102 3.15364C20.6046 4.41947 22.0812 6.21865 22.9532 8.32365C23.825 10.4287 24.0531 12.745 23.6087 14.9796C23.1642 17.2143 22.067 19.2669 20.4559 20.878C18.8449 22.4892 16.7922 23.5864 14.5575 24.0308C12.3228 24.4753 10.0065 24.2472 7.90153 23.3753C5.79653 22.5034 3.99734 21.0268 2.7315 19.1323C1.46568 17.2379 0.790039 15.0106 0.790039 12.7322C0.790039 12.2777 1.15844 11.9093 1.6129 11.9093C2.06735 11.9093 2.43576 12.2777 2.43576 12.7322C2.43576 14.6851 3.01487 16.5942 4.09987 18.218C5.18487 19.8419 6.72703 21.1074 8.53132 21.8548C10.3356 22.6022 12.321 22.7977 14.2364 22.4167C16.1519 22.0358 17.9113 21.0953 19.2922 19.7144C20.6732 18.3334 21.6136 16.5739 21.9946 14.6585C22.3756 12.7432 22.1801 10.7577 21.4327 8.95344C20.6854 7.14915 19.4197 5.607 17.7959 4.52199C16.1721 3.437 14.263 2.85788 12.31 2.85788C9.45755 2.85472 6.713 3.95219 4.64961 5.92168C4.32088 6.23547 3.80001 6.22333 3.48624 5.8946C3.17245 5.56586 3.18459 5.045 3.51332 4.73122Z" fill="#F1F5E9"/>
<path fill-rule="evenodd" clip-rule="evenodd" d="M5.10408 1.23668C5.54496 1.3469 5.81302 1.79365 5.70279 2.23453L5.07951 4.72767L7.57265 5.35096C8.01353 5.46118 8.28158 5.90795 8.17136 6.34882C8.06115 6.78971 7.61439 7.05776 7.1735 6.94754L3.88208 6.12468C3.67036 6.07175 3.48833 5.93689 3.37605 5.74975C3.26378 5.56261 3.23043 5.33854 3.28336 5.12682L4.10622 1.83539C4.21643 1.39451 4.6632 1.12646 5.10408 1.23668Z" fill="#F1F5E9"/>
<path fill-rule="evenodd" clip-rule="evenodd" d="M12.3101 6.14917C12.7646 6.14917 13.133 6.51757 13.133 6.97202V13.5549C13.133 13.8665 12.9569 14.1515 12.6781 14.2909L8.39928 16.4303C7.9928 16.6336 7.49854 16.4688 7.29531 16.0623C7.09207 15.6558 7.25682 15.1616 7.66329 14.9584L11.4873 13.0463V6.97202C11.4873 6.51757 11.8557 6.14917 12.3101 6.14917Z" fill="#F1F5E9"/>
</g>
</g>
<defs>
<clipPath id="clip0_1_1814">
<rect width="23.04" height="24" fill="white" transform="translate(0.790039 0.330078)"/>
</clipPath>
</defs>
</svg>
