<svg width="14" height="15" viewBox="0 0 14 15" fill="none" xmlns="http://www.w3.org/2000/svg">
<g clip-path="url(#clip0_1_2346)">
<mask id="mask0_1_2346" style="mask-type:luminance" maskUnits="userSpaceOnUse" x="0" y="1" width="14" height="14">
<path d="M13.5883 1.19397H0.411865V14.3704H13.5883V1.19397Z" fill="white"/>
</mask>
<g mask="url(#mask0_1_2346)">
<path fill-rule="evenodd" clip-rule="evenodd" d="M0.810342 1.19811C0.633662 1.22254 0.476294 1.36512 0.424737 1.54747C0.415361 1.58063 0.41505 1.78004 0.41505 7.78254C0.41505 13.785 0.415361 13.9845 0.424737 14.0176C0.449266 14.1044 0.491446 14.1749 0.556164 14.2373C0.620343 14.2992 0.681882 14.3347 0.765542 14.3585C0.798705 14.3678 0.998116 14.3681 7.00062 14.3681C13.0077 14.3681 13.2025 14.3678 13.2357 14.3584C13.4074 14.3097 13.5491 14.1624 13.5784 14.0018C13.5819 13.9829 13.5868 13.9634 13.5894 13.9584C13.5922 13.953 13.5936 11.3865 13.5928 7.77339C13.5919 3.79776 13.5905 2.43781 13.5888 3.95611C13.5874 5.25333 13.5856 6.30861 13.5848 6.30119C13.5824 6.27638 13.5631 6.2094 13.5494 6.17838C13.5204 6.1129 13.4789 6.05844 13.4228 6.01225C13.4025 5.99555 12.6425 5.45095 11.7338 4.80201C10.6576 4.03339 10.0649 3.61327 10.0334 3.59671C9.96254 3.55939 9.91774 3.54871 9.83094 3.54848C9.77469 3.54833 9.74982 3.55075 9.71235 3.56C9.61707 3.58351 9.52376 3.64107 9.46628 3.71189C9.45014 3.73171 8.66112 4.91186 7.71283 6.33446C6.76454 7.75704 5.98689 8.92098 5.9847 8.92098C5.98254 8.92098 5.53961 8.47966 5.00044 7.94026C4.46126 7.40087 4.00665 6.94905 3.9902 6.93621C3.89627 6.86296 3.77794 6.83072 3.65334 6.84443C3.58811 6.85162 3.54189 6.86526 3.49135 6.89226C3.37047 6.95684 3.28531 7.06329 3.24712 7.19751C3.24286 7.21246 3.24032 7.25434 3.24022 7.31082C3.24009 7.38896 3.24162 7.40579 3.25219 7.44229C3.26849 7.49857 3.29893 7.55551 3.33982 7.6062C3.39233 7.67128 5.7588 10.0329 5.79486 10.0562C5.86675 10.1026 5.93211 10.1255 6.01238 10.1325C6.16405 10.1456 6.2903 10.0998 6.39649 9.99309C6.41977 9.96962 6.8639 9.30734 8.1854 7.32532C9.15227 5.8752 9.94525 4.68872 9.94747 4.68872C9.94978 4.68872 10.6038 5.15459 11.401 5.72397C12.1981 6.29336 12.8671 6.76921 12.8876 6.78139C13.0358 6.86939 13.2389 6.86027 13.3878 6.75894C13.4226 6.73526 13.4829 6.67328 13.5071 6.63627C13.547 6.57531 13.5791 6.49619 13.585 6.44382C13.5862 6.43367 13.5873 8.09509 13.5875 10.1358C13.5878 13.1882 13.5866 13.8396 13.581 13.8088C13.5591 13.6875 13.4813 13.5741 13.3712 13.5026C13.3262 13.4732 13.288 13.4563 13.2337 13.4416L13.1909 13.43L7.2734 13.4286L1.3559 13.4273L1.35452 7.50977L1.35316 1.59227L1.34158 1.5495C1.29298 1.37008 1.1468 1.23276 0.971721 1.20208C0.93098 1.19494 0.848 1.19289 0.810342 1.19811ZM0.41505 7.78254C0.41505 11.1814 0.41564 12.5718 0.416367 10.8724C0.417095 9.17294 0.417095 6.3921 0.416367 4.69268C0.41564 2.99325 0.41505 4.38369 0.41505 7.78254Z" fill="#133F26"/>
</g>
</g>
<defs>
<clipPath id="clip0_1_2346">
<rect width="13.1765" height="14" fill="white" transform="translate(0.411865 0.849731)"/>
</clipPath>
</defs>
</svg>
